<svg width="220" height="57" viewBox="0 0 220 57" fill="none" xmlns="http://www.w3.org/2000/svg">
<path d="M5.76415 31.5671V29.9421H4.13915V28.3171H2.51415V20.1921H4.13915V18.5671H5.76415V28.3171H12.2642V25.0671H7.38915V23.4421H15.5142V29.9421H13.8892V31.5671H5.76415ZM12.2642 20.1921V18.5671H5.76415V16.9421H13.8892V18.5671H15.5142V20.1921H12.2642ZM18.7642 31.5671V29.9421H17.1392V23.4421H20.3892V29.9421H23.6392V23.4421H26.8892V29.9421H25.2642V31.5671H18.7642ZM36.6392 26.6921V25.0671H38.2642V26.6921H36.6392ZM30.1392 31.5671V29.9421H28.5142V25.0671H30.1392V23.4421H36.6392V25.0671H31.7642V26.6921H36.6392V28.3171H31.7642V29.9421H38.2642V31.5671H30.1392ZM39.8892 31.5671V29.9421H48.0142V31.5671H39.8892ZM48.0142 29.9421V28.3171H49.6392V29.9421H48.0142ZM41.5142 28.3171V26.6921H48.0142V28.3171H41.5142ZM39.8892 26.6921V25.0671H41.5142V26.6921H39.8892ZM41.5142 25.0671V23.4421H49.6392V25.0671H41.5142ZM51.2642 31.5671V29.9421H59.3892V31.5671H51.2642ZM59.3892 29.9421V28.3171H61.0142V29.9421H59.3892ZM52.8892 28.3171V26.6921H59.3892V28.3171H52.8892ZM51.2642 26.6921V25.0671H52.8892V26.6921H51.2642ZM52.8892 25.0671V23.4421H61.0142V25.0671H52.8892ZM64.2642 31.5671V25.0671H62.6392V23.4421H67.5142V31.5671H64.2642ZM64.2642 21.8171V18.5671H67.5142V21.8171H64.2642ZM69.1392 31.5671V23.4421H77.2642V25.0671H78.8892V31.5671H75.6392V25.0671H72.3892V31.5671H69.1392ZM87.0142 29.9421V25.0671H83.7642V29.9421H87.0142ZM82.1392 34.8171V33.1921H87.0142V31.5671H82.1392V29.9421H80.5142V25.0671H82.1392V23.4421H90.2642V33.1921H88.6392V34.8171H82.1392ZM100.014 31.5671V29.9421H98.3892V28.3171H96.7642V20.1921H98.3892V18.5671H100.014V28.3171H106.514V25.0671H101.639V23.4421H109.764V29.9421H108.139V31.5671H100.014ZM106.514 20.1921V18.5671H100.014V16.9421H108.139V18.5671H109.764V20.1921H106.514ZM113.014 31.5671V29.9421H117.889V31.5671H113.014ZM111.389 29.9421V28.3171H113.014V29.9421H111.389ZM119.514 31.5671V29.9421H117.889V28.3171H113.014V26.6921H117.889V25.0671H111.389V23.4421H119.514V25.0671H121.139V31.5671H119.514ZM122.764 31.5671V25.0671H124.389V23.4421H129.264V25.0671H130.889V31.5671H127.639V25.0671H126.014V31.5671H122.764ZM132.514 31.5671V25.0671H130.889V23.4421H134.139V25.0671H135.764V31.5671H132.514ZM145.514 26.6921V25.0671H147.139V26.6921H145.514ZM139.014 31.5671V29.9421H137.389V25.0671H139.014V23.4421H145.514V25.0671H140.639V26.6921H145.514V28.3171H140.639V29.9421H147.139V31.5671H139.014Z" fill="white"/>
<g clip-path="url(#clip0_17_35)">
<path d="M218.172 30.8011L216.513 32.4279L192.101 8.4519L193.757 6.82511L218.172 30.8011Z" fill="url(#paint0_linear_17_35)"/>
<path d="M192.636 7.3481C192.034 7.93942 192.101 8.44927 192.101 8.44927L196.414 12.6857C196.358 12.4361 196.575 11.9972 196.971 11.6056C197.367 11.2166 197.814 11.0038 198.071 11.059L193.757 6.82249C193.757 6.82511 193.241 6.75678 192.636 7.3481Z" fill="url(#paint1_linear_17_35)"/>
<path d="M212.689 27.0429C212.087 27.6343 212.154 28.1441 212.154 28.1441L216.478 32.3937C216.422 32.144 216.628 31.692 217.024 31.3004C217.42 30.9115 217.883 30.7091 218.137 30.7643L213.81 26.5173C213.81 26.5173 213.291 26.4516 212.689 27.0429Z" fill="url(#paint2_linear_17_35)"/>
<path d="M218.147 30.7757C217.944 30.5766 217.409 30.7796 216.951 31.2291C216.493 31.6787 216.287 32.2045 216.489 32.4036C216.692 32.6027 217.227 32.3997 217.685 31.9502C218.143 31.5006 218.349 30.9748 218.147 30.7757Z" fill="#9E9E9E"/>
<path opacity="0.85" d="M192.106 8.45714L210.289 26.3123C210.492 26.512 211.027 26.3097 211.482 25.8603C211.94 25.4109 212.146 24.8853 211.942 24.6882L193.76 6.83036C193.76 6.83036 193.257 6.71998 192.633 7.35072C192.01 7.98146 192.106 8.45714 192.106 8.45714Z" fill="url(#paint3_linear_17_35)"/>
<path opacity="0.22" d="M198.322 14.5622L216.505 32.4173C216.708 32.6171 217.243 32.4147 217.698 31.9653C218.156 31.5159 218.362 30.9903 218.159 30.7932L199.978 12.9328C199.978 12.9328 199.475 12.8224 198.852 13.4531C198.231 14.0865 198.322 14.5622 198.322 14.5622Z" fill="url(#paint4_linear_17_35)"/>
<path d="M190.056 15.6712L188.461 14.0996C188.373 14.0129 188.445 13.8631 188.571 13.8762L190.442 14.0786C190.514 14.0865 190.581 14.0366 190.589 13.963L190.862 11.7133C190.878 11.5819 191.06 11.553 191.116 11.6765L192.184 14.0208C192.2 14.0549 192.232 14.0812 192.269 14.0917L194.637 14.7698C194.752 14.8013 194.768 14.9538 194.664 15.0089L192.724 16.0575C192.701 16.0699 192.683 16.0884 192.671 16.1107C192.658 16.133 192.653 16.1584 192.654 16.1837L192.82 18.1968C192.823 18.2236 192.817 18.2504 192.803 18.2736C192.789 18.2969 192.768 18.3153 192.743 18.3265C192.718 18.3377 192.691 18.3411 192.664 18.3363C192.637 18.3314 192.612 18.3185 192.593 18.2993L191.268 16.9642C191.231 16.9248 191.169 16.9143 191.119 16.9353L189.473 17.6423C189.36 17.6896 189.245 17.5766 189.299 17.4662L190.086 15.8131C190.107 15.7685 190.096 15.7106 190.056 15.6712Z" fill="url(#paint5_radial_17_35)"/>
<path d="M201.948 9.96304L202.534 8.71733C202.55 8.68579 202.545 8.649 202.523 8.62272L201.563 7.37438C201.512 7.30868 201.565 7.21932 201.646 7.22458L203.224 7.34284C203.259 7.34547 203.294 7.3297 203.313 7.29816L204.062 6.10764C204.107 6.03669 204.22 6.05508 204.236 6.13918L204.549 7.63193C204.557 7.66872 204.584 7.69763 204.621 7.70552L206.053 8.02351C206.138 8.04191 206.154 8.15492 206.077 8.19697L204.843 8.85924C204.828 8.86734 204.815 8.87946 204.806 8.89429C204.797 8.90913 204.792 8.92609 204.792 8.94334L204.843 10.5097C204.846 10.5911 204.75 10.6358 204.685 10.5859L203.457 9.57671C203.43 9.55306 203.393 9.5478 203.358 9.56094L202.068 10.0918C201.991 10.1207 201.91 10.0393 201.948 9.96304Z" fill="url(#paint6_radial_17_35)"/>
<path d="M188.138 4.8225L187.137 2.60703C187.086 2.49665 187.198 2.39942 187.305 2.45723L189.36 3.55314C189.409 3.57942 189.468 3.57417 189.505 3.54L191.849 1.16685C191.924 1.09589 192.058 1.15633 192.063 1.26409L191.541 4.176C191.544 4.22067 191.571 4.26272 191.614 4.28638L194.469 5.81855C194.573 5.87636 194.562 6.02354 194.453 6.04719L191.672 6.34679C191.649 6.35265 191.627 6.3657 191.612 6.38408C191.596 6.40247 191.586 6.42528 191.584 6.44929L191.185 8.85398C191.177 8.95647 191.052 8.99589 190.974 8.91705L189.401 6.90657C189.371 6.87766 189.331 6.86189 189.291 6.86715L186.192 7.2272C186.074 7.23771 185.997 7.09317 186.077 7.01169L188.116 4.95654C188.148 4.92237 188.156 4.86981 188.138 4.8225Z" fill="url(#paint7_radial_17_35)"/>
<path d="M192.21 8.33364C192.467 9.31654 192.689 10.3126 192.775 11.3296C192.869 12.3467 192.794 13.3795 192.609 14.3835C192.419 15.3874 192.181 16.3729 191.994 17.3663C191.806 18.3598 191.656 19.3584 191.539 20.3624C191.48 20.8643 191.437 21.3689 191.386 21.8709C191.338 22.3623 191.351 22.8485 191.461 23.3111C191.579 23.7657 191.801 24.1888 192.165 24.4622C192.523 24.7381 192.989 24.8695 193.468 24.8695C194.434 24.8748 195.397 24.4937 196.267 24.0101C197.142 23.5239 197.937 22.8853 198.731 22.2467C200.326 20.9747 201.844 19.6002 203.372 18.2362C204.137 17.5529 204.899 16.8696 205.675 16.1968C206.446 15.5188 207.241 14.8644 208.06 14.2389C208.876 13.6108 209.729 13.0142 210.655 12.528C210.88 12.4072 211.129 12.2731 211.429 12.2337C211.581 12.2206 211.75 12.2363 211.9 12.3204C212.049 12.4045 212.143 12.5438 212.205 12.6778C212.317 12.9538 212.325 13.2271 212.312 13.4899C212.296 13.7527 212.253 14.0103 212.194 14.2626C211.945 15.2665 211.52 16.2047 211.041 17.1088C210.8 17.5608 210.543 18.0023 210.273 18.436C210 18.867 209.711 19.2901 209.416 19.7053C209.962 18.8433 210.471 17.9603 210.912 17.0483C211.351 16.1364 211.734 15.1877 211.934 14.2126C211.98 13.9682 212.017 13.7238 212.025 13.482C212.033 13.2403 212.012 12.9958 211.926 12.8014C211.881 12.7068 211.822 12.6279 211.742 12.5885C211.664 12.5491 211.565 12.5386 211.461 12.5491C211.247 12.5806 211.033 12.6936 210.811 12.8224C209.927 13.3138 209.103 13.9157 208.311 14.5569C205.143 17.1219 202.264 20.0444 199.069 22.6514C198.263 23.29 197.444 23.9365 196.516 24.4438C195.595 24.9431 194.573 25.3557 193.457 25.3426C192.906 25.3373 192.325 25.1796 191.87 24.8222C191.408 24.4674 191.14 23.9365 191.011 23.4135C190.894 22.8853 190.88 22.3439 190.942 21.8262C191.006 21.3216 191.06 20.8144 191.132 20.3098C191.276 19.3006 191.453 18.2967 191.664 17.3006C191.878 16.3046 192.135 15.3191 192.352 14.3335C192.572 13.3506 192.687 12.3467 192.633 11.3375C192.585 10.331 192.411 9.32968 192.21 8.33364Z" fill="#FDD835"/>
<path d="M194.557 15.8263C195.258 18.7829 193.219 22.1757 193.578 25.3084C193.738 26.5042 195.194 26.9956 197.501 25.8471C201.453 23.5923 203.786 20.3019 205.234 19.0877C204.303 20.7198 201.849 24.0732 199.54 26.4043C196.114 29.9128 191.833 29.2636 191.846 26.0101C191.739 24.9194 192.275 22.8091 192.604 21.9261C192.96 21.0562 194.273 18.0943 194.557 15.8263Z" fill="url(#paint8_radial_17_35)"/>
</g>
<g clip-path="url(#clip1_17_35)">
<path d="M181.776 24.4007L171.456 30.2526C170.387 30.8586 169.02 30.499 168.403 29.4493L157.976 11.7118C157.359 10.6622 157.725 9.32009 158.794 8.71405L169.114 2.86217C170.183 2.2562 171.55 2.61579 172.167 3.66545L182.594 21.4031C183.211 22.4526 182.845 23.7948 181.776 24.4007Z" fill="#E7E4CD"/>
<path d="M182.695 21.5755L182.594 21.4032L182.594 21.4031L178.512 14.4604L174.433 7.52064L172.166 3.66538C171.646 2.77984 170.592 2.38543 169.633 2.64772L172.82 8.06918C173.219 8.74815 173.219 9.58466 172.82 10.2636L164.973 23.6133L168.505 29.6219C169.122 30.6714 170.488 31.0311 171.557 30.4251L181.877 24.5733C182.946 23.9672 183.312 22.6251 182.695 21.5755Z" fill="#C1BDAB"/>
<path d="M172.86 12.493C171.528 12.1165 170.158 12.6802 169.468 13.7756L169.9 12.1927C170.072 11.5633 169.383 11.0441 168.808 11.3699L166.449 12.7074C165.875 13.0332 165.988 13.8788 166.629 14.0474L168.241 14.4715C166.93 14.5105 165.748 15.3938 165.414 16.715C165.015 18.2933 166.015 19.8931 167.613 20.3168L172.225 21.5387C172.872 21.71 173.535 21.3336 173.708 20.6978L174.936 16.1647C175.362 14.5932 174.451 12.9428 172.86 12.493Z" fill="#47423F"/>
<path d="M176.664 34.814L166.343 28.9621C165.275 28.3561 164.909 27.014 165.526 25.9644L175.953 8.2268C176.57 7.17721 177.936 6.81756 179.005 7.42353L189.325 13.2754C190.394 13.8814 190.76 15.2235 190.143 16.2731L179.716 34.0108C179.099 35.0603 177.732 35.42 176.664 34.814Z" fill="#E7E4CD"/>
<path d="M189.774 13.6096L179.103 31.7625C178.486 32.812 177.119 33.1717 176.05 32.5657L165.307 26.4741C165.04 27.4156 165.442 28.4509 166.343 28.9621L176.664 34.814C177.732 35.4199 179.099 35.0604 179.716 34.0107L190.143 16.2731C190.664 15.3876 190.484 14.2939 189.774 13.6096Z" fill="#C1BDAB"/>
<path d="M180.747 10.3117C180.571 10.2119 180.363 10.2173 180.197 10.3071C180.016 10.0053 179.759 9.75991 179.459 9.58935C179.457 9.58843 179.455 9.58751 179.453 9.58659C179.452 9.58554 179.45 9.58455 179.448 9.58357C178.995 9.32661 178.443 9.23896 177.899 9.38193C176.811 9.66793 176.163 10.7698 176.455 11.8382C176.601 12.3724 176.954 12.7986 177.407 13.0556C177.409 13.0565 177.411 13.0574 177.413 13.0583C177.414 13.0594 177.416 13.0604 177.418 13.0614C177.718 13.2319 178.063 13.3273 178.42 13.3307C178.424 13.5166 178.523 13.6961 178.699 13.7959C178.966 13.9474 179.308 13.8576 179.462 13.5952L180.952 11.0613C181.106 10.7989 181.014 10.4633 180.747 10.3117ZM177.976 12.112L177.976 12.1115C177.974 12.1104 177.972 12.1095 177.97 12.1087C177.969 12.1076 177.967 12.1067 177.966 12.1057L177.966 12.1062C177.752 11.9848 177.598 11.7889 177.534 11.5545C177.402 11.0706 177.696 10.5716 178.188 10.442C178.427 10.3793 178.676 10.4116 178.89 10.533L178.89 10.5335C178.892 10.5345 178.894 10.5354 178.896 10.5362C178.897 10.5373 178.899 10.5382 178.9 10.5392L178.9 10.5387C179.115 10.6601 179.268 10.8561 179.332 11.0904C179.397 11.3287 179.358 11.5704 179.244 11.7701L179.233 11.7886C179.114 11.9856 178.92 12.1392 178.678 12.2029C178.439 12.2657 178.19 12.2334 177.976 12.112Z" fill="#8D472E"/>
<path d="M174.922 31.9259C175.098 32.0257 175.306 32.0203 175.471 31.9305C175.653 32.2323 175.909 32.4777 176.21 32.6482C176.212 32.6492 176.213 32.6501 176.215 32.651C176.217 32.6521 176.218 32.653 176.22 32.654C176.673 32.911 177.226 32.9986 177.77 32.8557C178.858 32.5697 179.506 31.4678 179.214 30.3994C179.068 29.8652 178.714 29.439 178.261 29.182C178.259 29.1811 178.258 29.1802 178.256 29.1792C178.254 29.1782 178.253 29.1772 178.251 29.1762C177.95 29.0057 177.606 28.9103 177.249 28.9068C177.245 28.721 177.146 28.5415 176.97 28.4417C176.702 28.2902 176.361 28.38 176.207 28.6424L174.717 31.1763C174.563 31.4387 174.654 31.7743 174.922 31.9259ZM177.693 30.1256L177.693 30.1261C177.695 30.1271 177.696 30.128 177.698 30.1288C177.7 30.1299 177.701 30.1308 177.703 30.1318L177.703 30.1313C177.917 30.2527 178.07 30.4487 178.134 30.683C178.266 31.1669 177.973 31.6659 177.48 31.7955C177.242 31.8582 176.992 31.8259 176.778 31.7046L176.778 31.704C176.777 31.703 176.775 31.7021 176.773 31.7013C176.772 31.7002 176.77 31.6993 176.768 31.6983L176.768 31.6988C176.554 31.5774 176.401 31.3814 176.337 31.1471C176.272 30.9089 176.31 30.6671 176.425 30.4675L176.435 30.4489C176.554 30.252 176.748 30.0984 176.991 30.0346C177.229 29.9719 177.479 30.0042 177.693 30.1256Z" fill="#8D472E"/>
<path d="M181.131 23.8155L176.519 25.0375C175.873 25.2089 175.209 24.8323 175.036 24.1967L173.808 19.6635C173.382 18.092 174.293 16.4416 175.884 15.9918C177.51 15.5323 179.193 16.4724 179.626 18.0714C181.252 17.6404 182.923 18.6014 183.33 20.2138C183.729 21.7921 182.729 23.392 181.131 23.8155Z" fill="#8D472E"/>
<path d="M162.313 8.84909C162.137 8.94889 162.038 9.12839 162.034 9.31426C161.677 9.31768 161.333 9.41308 161.032 9.58357C161.03 9.58449 161.029 9.58554 161.027 9.5866C161.025 9.58745 161.024 9.58844 161.022 9.58935C160.569 9.84632 160.215 10.2726 160.069 10.8067C159.777 11.8751 160.425 12.977 161.513 13.263C162.057 13.406 162.61 13.3184 163.063 13.0614C163.065 13.0605 163.066 13.0595 163.068 13.0584C163.07 13.0576 163.071 13.0566 163.073 13.0557C163.374 12.8852 163.63 12.6397 163.812 12.338C163.977 12.4277 164.185 12.4331 164.361 12.3333C164.629 12.1818 164.72 11.8461 164.566 11.5837L163.076 9.04974C162.922 8.78733 162.58 8.69752 162.313 8.84909ZM162.946 11.5546C162.882 11.7889 162.729 11.9849 162.515 12.1063L162.515 12.1057C162.513 12.1068 162.511 12.1079 162.509 12.109C162.508 12.1098 162.506 12.1105 162.505 12.1115L162.505 12.1119C162.291 12.2333 162.042 12.2656 161.803 12.2028C161.31 12.0733 161.017 11.5743 161.149 11.0904C161.213 10.856 161.366 10.66 161.58 10.5387L161.58 10.5392C161.582 10.5382 161.584 10.537 161.586 10.5359C161.587 10.5351 161.589 10.5344 161.59 10.5335L161.59 10.533C161.804 10.4117 162.054 10.3794 162.292 10.4421C162.535 10.5059 162.729 10.6594 162.848 10.8564L162.859 10.8749C162.973 11.0746 163.011 11.3163 162.946 11.5546Z" fill="black"/>
<path d="M189.605 12.8003L179.284 6.94844C178.638 6.58209 177.886 6.48485 177.165 6.6744C176.444 6.86408 175.842 7.31795 175.469 7.9525L168.41 19.9598L167.759 19.7872C166.443 19.4385 165.634 18.1197 165.956 16.8474C166.22 15.8039 167.166 15.0525 168.257 15.0201C168.534 15.0118 168.763 14.8053 168.795 14.5351C168.827 14.2648 168.653 14.0123 168.385 13.9419L166.773 13.5178C166.669 13.4902 166.643 13.4102 166.637 13.365C166.631 13.3197 166.635 13.2359 166.728 13.1828L169.087 11.8453C169.181 11.792 169.257 11.8308 169.294 11.8587C169.33 11.8865 169.388 11.9484 169.36 12.0511L168.928 13.6339C168.857 13.8968 168.992 14.1716 169.246 14.2795C169.501 14.3874 169.797 14.2961 169.943 14.0646C170.282 13.5267 170.836 13.1347 171.465 12.9892C171.765 12.9196 171.951 12.6242 171.881 12.3294C171.81 12.0344 171.509 11.8518 171.209 11.9214C170.953 11.9806 170.706 12.0678 170.472 12.1798C170.536 11.7268 170.35 11.2721 169.974 10.9883C169.554 10.6719 168.987 10.6356 168.529 10.8954L166.17 12.2328C165.712 12.4925 165.46 12.9932 165.529 13.5083C165.591 13.9713 165.9 14.3572 166.333 14.5283C165.623 15.0028 165.088 15.7252 164.872 16.5832C164.404 18.431 165.569 20.3437 167.468 20.8468L167.832 20.9434L165.94 24.1622L158.46 11.4375C157.998 10.6515 158.273 9.64294 159.073 9.18921L169.394 3.33733C169.781 3.11742 170.233 3.05921 170.665 3.17288C171.097 3.28667 171.459 3.55901 171.683 3.93975L173.803 7.54705C173.958 7.80947 174.299 7.89928 174.566 7.74784C174.834 7.59633 174.925 7.26079 174.771 6.99844L172.65 3.39114C172.277 2.75659 171.675 2.30265 170.954 2.11304C170.234 1.92336 169.481 2.02073 168.835 2.38708L158.515 8.23896C157.181 8.99525 156.722 10.6761 157.492 11.9861L165.295 25.2592L165.042 25.6901C164.272 27 164.73 28.6809 166.064 29.4372L176.384 35.2891C176.815 35.5331 177.292 35.6578 177.776 35.6578C178.019 35.6578 178.263 35.6264 178.504 35.5631C179.225 35.3734 179.827 34.9195 180.2 34.285L190.627 16.5474C191.397 15.2375 190.938 13.5565 189.605 12.8003ZM189.659 15.9988L179.232 33.7364C179.008 34.1171 178.647 34.3895 178.215 34.5033C177.782 34.6168 177.331 34.5587 176.943 34.3388L166.623 28.4869C166.235 28.2671 165.958 27.9123 165.842 27.4876C165.726 27.063 165.786 26.6195 166.01 26.2387L176.437 8.50111C176.747 7.97365 177.311 7.67846 177.891 7.67846C178.175 7.67846 178.463 7.74941 178.726 7.89862L189.046 13.7505C189.846 14.2043 190.121 15.2129 189.659 15.9988Z" fill="black"/>
<path d="M182.103 17.8394C181.831 17.6956 181.492 17.7953 181.346 18.0619C181.2 18.3286 181.301 18.6614 181.573 18.8052C182.179 19.1262 182.622 19.6877 182.788 20.3459C183.11 21.6184 182.301 22.9372 180.985 23.2858L176.374 24.5077C176.205 24.5524 176.03 24.5299 175.879 24.4446C175.729 24.3592 175.621 24.221 175.576 24.0555L174.348 19.5223C173.998 18.2288 174.756 16.8815 176.039 16.5188C176.678 16.3381 177.349 16.4153 177.926 16.7362C178.503 17.0572 178.915 17.5815 179.086 18.2123C179.165 18.5052 179.471 18.6795 179.769 18.6014C180.068 18.5235 180.245 18.223 180.166 17.9301C179.917 17.012 179.317 16.249 178.476 15.7814C177.636 15.314 176.66 15.2014 175.73 15.4645C173.867 15.9911 172.763 17.938 173.268 19.8045L174.497 24.3377C174.618 24.7871 174.911 25.1625 175.32 25.3948C175.593 25.5491 175.895 25.6279 176.201 25.6279C176.355 25.6279 176.511 25.6078 176.665 25.5671L181.276 24.3452C183.175 23.8421 184.34 21.9294 183.872 20.0816C183.63 19.124 182.985 18.3067 182.103 17.8394Z" fill="black"/>
</g>
<g clip-path="url(#clip2_17_35)">
<path d="M155.432 23.8247C155.906 22.3482 160.521 19.5215 173.482 23.5353C186.442 27.549 188.572 32.4647 188.098 33.9411C187.624 35.4176 180.356 33.0139 171.335 30.2203C162.316 27.4269 154.958 25.3011 155.432 23.8247Z" fill="#424953"/>
<path d="M165.542 48.2661C171.931 50.2449 177.399 50.9513 177.755 49.844L182.868 31.5874C182.868 31.5874 180.575 29.4069 172.409 26.8778C164.242 24.3487 161.091 24.8433 161.091 24.8433L154.615 42.6779C154.26 43.7852 159.152 46.2872 165.542 48.2661Z" fill="#646C77"/>
<path d="M160.131 27.4846C160.131 27.4846 163.384 27.0216 171.55 29.5507C179.717 32.0798 182.111 34.2915 182.111 34.2915L182.868 31.5874C182.868 31.5874 180.575 29.4069 172.409 26.8778C164.242 24.3487 161.091 24.8433 161.091 24.8433L160.131 27.4846Z" fill="#EC5564"/>
<g opacity="0.2">
<path d="M165.542 48.2661C165.77 48.3368 165.997 48.4056 166.223 48.4734C160.17 46.5315 155.634 44.1672 155.977 43.0996L162.589 24.8336L161.091 24.8433L154.615 42.6778C154.26 43.7852 159.152 46.2871 165.542 48.2661Z" fill="white"/>
</g>
<path d="M154.615 42.6779C154.971 41.5705 160.439 42.2769 166.829 44.2559C173.219 46.2347 178.11 48.7366 177.755 49.844C177.399 50.9513 171.931 50.2449 165.542 48.2661C159.152 46.2872 154.26 43.7852 154.615 42.6779Z" fill="#59616B"/>
</g>
<defs>
<linearGradient id="paint0_linear_17_35" x1="204.307" y1="20.4401" x2="205.934" y2="18.7833" gradientUnits="userSpaceOnUse">
<stop offset="0.595" stop-color="#616161"/>
<stop offset="0.775" stop-color="#565656"/>
<stop offset="1" stop-color="#424242"/>
</linearGradient>
<linearGradient id="paint1_linear_17_35" x1="194.257" y1="10.281" x2="196.04" y2="8.46572" gradientUnits="userSpaceOnUse">
<stop offset="0.262" stop-color="#F5F5F5"/>
<stop offset="0.466" stop-color="#EAEAEA"/>
<stop offset="0.822" stop-color="#CDCDCD"/>
<stop offset="0.989" stop-color="#BDBDBD"/>
</linearGradient>
<linearGradient id="paint2_linear_17_35" x1="214.315" y1="29.983" x2="216.102" y2="28.1631" gradientUnits="userSpaceOnUse">
<stop offset="0.262" stop-color="#F5F5F5"/>
<stop offset="0.466" stop-color="#EAEAEA"/>
<stop offset="0.822" stop-color="#CDCDCD"/>
<stop offset="0.989" stop-color="#BDBDBD"/>
</linearGradient>
<linearGradient id="paint3_linear_17_35" x1="201.104" y1="15.667" x2="192.013" y2="6.41041" gradientUnits="userSpaceOnUse">
<stop stop-color="#FADA80" stop-opacity="0"/>
<stop offset="1" stop-color="#FADA80"/>
</linearGradient>
<linearGradient id="paint4_linear_17_35" x1="220.075" y1="34.2991" x2="213.784" y2="27.8929" gradientUnits="userSpaceOnUse">
<stop stop-color="#1A237E"/>
<stop offset="0.186" stop-color="#1D2A87" stop-opacity="0.814"/>
<stop offset="0.49" stop-color="#243DA0" stop-opacity="0.51"/>
<stop offset="0.873" stop-color="#2F5CC7" stop-opacity="0.127"/>
<stop offset="1" stop-color="#3367D6" stop-opacity="0"/>
</linearGradient>
<radialGradient id="paint5_radial_17_35" cx="0" cy="0" r="1" gradientUnits="userSpaceOnUse" gradientTransform="translate(191.195 13.6879) rotate(-87.817) scale(3.88545 3.95596)">
<stop stop-color="#FFEB3B"/>
<stop offset="1" stop-color="#FBC02D"/>
</radialGradient>
<radialGradient id="paint6_radial_17_35" cx="0" cy="0" r="1" gradientUnits="userSpaceOnUse" gradientTransform="translate(202.287 7.81423) rotate(-110.425) scale(3.12971 3.17292)">
<stop stop-color="#FFEB3B"/>
<stop offset="1" stop-color="#FBC02D"/>
</radialGradient>
<radialGradient id="paint7_radial_17_35" cx="0" cy="0" r="1" gradientUnits="userSpaceOnUse" gradientTransform="translate(190.115 5.24903) rotate(14.4591) scale(4.28408 4.55874)">
<stop offset="0.325" stop-color="#FFEB3B"/>
<stop offset="1" stop-color="#FBC02D"/>
</radialGradient>
<radialGradient id="paint8_radial_17_35" cx="0" cy="0" r="1" gradientUnits="userSpaceOnUse" gradientTransform="translate(203.775 9.26063) rotate(-58.8479) scale(24.7508 14.9598)">
<stop stop-color="#FFEE58" stop-opacity="0"/>
<stop offset="1" stop-color="#FDD835"/>
</radialGradient>
<clipPath id="clip0_17_35">
<rect width="33.6394" height="34.2516" fill="white" transform="matrix(0 -1 1 0 185.02 33.6394)"/>
</clipPath>
<clipPath id="clip1_17_35">
<rect width="34.2516" height="33.6394" fill="white" transform="translate(156.934 2.01837)"/>
</clipPath>
<clipPath id="clip2_17_35">
<rect width="34.1967" height="33.6952" fill="white" transform="matrix(-0.95524 -0.295831 0.305698 -0.952129 180.694 57)"/>
</clipPath>
</defs>
</svg>
