<svg width="50" height="50" viewBox="0 0 50 50" fill="none" xmlns="http://www.w3.org/2000/svg">
<path d="M35.1363 43C34.6988 43 34.3425 42.645 34.3425 42.2075V30.1625C34.3425 25.8075 32.1075 25.8075 31.265 25.8075C28.9175 25.8075 27.7288 27.2725 27.7288 30.1625V42.2087C27.7288 42.6462 27.3738 43.0012 26.9363 43.0012H20.125C19.6875 43.0012 19.3325 42.6462 19.3325 42.2087V19.2625C19.3325 18.825 19.6875 18.47 20.125 18.47H26.9375C27.375 18.47 27.73 18.825 27.73 19.2625V20.1175L28.14 19.7787C29.7525 18.445 31.6763 17.7687 33.8575 17.7687C36.5538 17.7687 38.8238 18.63 40.4213 20.2612C42.1088 21.9837 43 24.5487 43 27.6775V42.2087C43 42.6462 42.6438 43.0012 42.2063 43.0012L35.1363 43ZM31.2663 24.22C33.0088 24.22 35.9313 24.9925 35.9313 30.1625V41.415H41.4125V27.6775C41.4125 22.3887 38.6588 19.3562 33.8575 19.3562C29.57 19.3562 27.7125 22.5937 27.635 22.7312C27.495 22.985 27.23 23.1425 26.9413 23.1425C26.8763 23.1425 26.81 23.1325 26.7425 23.1162C26.39 23.0275 26.1438 22.7137 26.1438 22.3537V20.0575H20.9188V41.4162H26.1438V30.1625C26.1438 26.4412 28.0588 24.22 31.2663 24.22Z" fill="#444444"/>
<path d="M8.47502 43C8.03752 43 7.68127 42.645 7.68127 42.2075V19.2625C7.68127 18.825 8.03752 18.47 8.47502 18.47H15.5813C16.0188 18.47 16.3738 18.825 16.3738 19.2625V42.2075C16.3738 42.645 16.0188 43 15.5813 43H8.47502ZM9.26877 41.415H14.7875V20.0563H9.26877V41.415Z" fill="#444444"/>
<path d="M11.9963 17.0487C9.24125 17.0487 7 14.795 7 12.025C7 9.25375 9.24125 7 11.9963 7C14.7475 7 16.9875 9.255 16.9875 12.0263C16.9875 14.795 14.7475 17.0487 11.9963 17.0487ZM11.9963 8.5825C10.1163 8.5825 8.5875 10.1262 8.5875 12.025C8.5875 13.9225 10.1163 15.4638 11.9963 15.4638C13.875 15.4638 15.4025 13.9225 15.4025 12.025C15.4012 10.1275 13.875 8.5825 11.9963 8.5825Z" fill="#444444"/>
</svg>
