<svg width="50" height="50" viewBox="0 0 50 50" fill="none" xmlns="http://www.w3.org/2000/svg">
<path d="M31.1031 27.8859C31.7734 27.8859 32.3375 28.2141 32.825 28.8797C33.3093 29.5391 33.5562 30.3547 33.5562 31.3172C33.5562 32.2844 33.3125 33.1 32.825 33.7594C32.3375 34.4188 31.7656 34.75 31.1031 34.75C30.3984 34.75 29.7922 34.4219 29.3047 33.7594C28.825 33.1 28.5781 32.2844 28.5781 31.3172C28.5781 30.35 28.8172 29.5375 29.3047 28.8797C29.7922 28.2125 30.4015 27.8859 31.1031 27.8859ZM39.7265 18.9563C41.6047 20.9922 42.5531 23.4625 42.5531 26.3594C42.5531 28.2391 42.3312 29.9313 41.9047 31.4359C41.4703 32.9328 40.9219 34.1594 40.2672 35.0969C39.6 36.0422 38.7937 36.8719 37.8218 37.5734C36.85 38.2938 35.9547 38.8078 35.1469 39.1391C34.339 39.4703 33.4093 39.7266 32.3578 39.9047C31.3187 40.0875 30.5328 40.1859 29.9875 40.2141C29.4625 40.2375 28.8906 40.2484 28.2734 40.2484C28.1359 40.2484 27.6719 40.2641 26.9 40.2859C26.1469 40.3172 25.5 40.3313 24.9969 40.3313C24.4937 40.3313 23.8468 40.3156 23.0937 40.2859C22.3281 40.2625 21.8594 40.2484 21.7203 40.2484C21.1031 40.2484 20.5265 40.2406 20.0047 40.2141C19.4578 40.1875 18.6734 40.0891 17.639 39.9047C16.5828 39.7297 15.6578 39.4781 14.8469 39.1391C14.039 38.8109 13.1453 38.2938 12.1781 37.5734C11.2031 36.8641 10.3953 36.0375 9.7281 35.0969C9.07341 34.1594 8.52185 32.9328 8.0906 31.4359C7.6656 29.9313 7.44373 28.2391 7.44373 26.3594C7.44373 23.4625 8.38904 20.9922 10.2719 18.9563C10.064 18.8547 10.0531 17.8406 10.239 15.9063C10.4062 13.9703 10.8172 12.1875 11.4844 10.5609C13.8328 10.8109 16.7219 12.1359 20.1828 14.5281C21.3515 14.2234 22.9515 14.0672 24.9922 14.0672C27.1328 14.0672 28.7328 14.2234 29.8031 14.5281C31.3797 13.4641 32.889 12.5922 34.3281 11.9297C35.7906 11.275 36.8422 10.8875 37.5047 10.7875L38.4953 10.5609C39.1656 12.1875 39.5765 13.975 39.7453 15.9063C39.939 17.8391 39.9281 18.8547 39.7219 18.9563H39.7265ZM25.0812 38.5672C29.3047 38.5672 32.489 38.0609 34.6515 37.0469C36.8078 36.0297 37.9047 33.9375 37.9047 30.7844C37.9047 28.9563 37.2156 27.425 35.839 26.2031C35.1297 25.5406 34.3 25.1391 33.3468 24.9828C32.4172 24.8297 30.9812 24.8297 29.0422 24.9828C27.1109 25.1391 25.789 25.2094 25.0781 25.2094C24.1109 25.2094 23.0609 25.1578 21.7578 25.0563C20.4547 24.9594 19.4344 24.8969 18.7047 24.8656C17.9578 24.8422 17.164 24.9359 16.3015 25.1344C15.4312 25.3422 14.7265 25.6922 14.1562 26.1984C12.8437 27.3703 12.1781 28.8938 12.1781 30.7797C12.1781 33.9344 13.2469 36.025 15.3812 37.0391C17.514 38.0594 20.689 38.5625 24.914 38.5625L25.0812 38.5672ZM18.9734 27.8859C19.6359 27.8859 20.2062 28.2141 20.689 28.8797C21.1734 29.5391 21.4187 30.3547 21.4187 31.3172C21.4187 32.2844 21.1765 33.1 20.689 33.7594C20.2062 34.4188 19.6312 34.75 18.9734 34.75C18.2625 34.75 17.6594 34.4219 17.1719 33.7594C16.689 33.1 16.4422 32.2844 16.4422 31.3172C16.4422 30.35 16.6844 29.5375 17.1719 28.8797C17.6594 28.2125 18.264 27.8859 18.9734 27.8859Z" fill="#444444"/>
</svg>
