<svg width="192" height="192" viewBox="0 0 192 192" fill="none" xmlns="http://www.w3.org/2000/svg">
<g clip-path="url(#clip0_36_73)">
<path d="M187.147 102.459L182.72 107.026L117.587 39.7246L122.006 35.1582L187.147 102.459Z" fill="url(#paint0_linear_36_73)"/>
<path d="M119.015 36.6263C117.409 38.2861 117.587 39.7172 117.587 39.7172L129.096 51.6091C128.946 50.9082 129.524 49.6763 130.581 48.5771C131.638 47.4853 132.83 46.8878 133.515 47.0427L122.006 35.1508C122.006 35.1582 120.628 34.9664 119.015 36.6263Z" fill="url(#paint1_linear_36_73)"/>
<path d="M172.518 91.91C170.912 93.5698 171.09 95.001 171.09 95.001L182.628 106.93C182.478 106.229 183.027 104.96 184.084 103.861C185.141 102.769 186.376 102.201 187.054 102.356L175.51 90.4346C175.51 90.4346 174.125 90.2501 172.518 91.91Z" fill="url(#paint2_linear_36_73)"/>
<path d="M187.08 102.388C186.539 101.829 185.11 102.399 183.889 103.661C182.668 104.923 182.116 106.399 182.657 106.958C183.198 107.516 184.627 106.947 185.848 105.685C187.069 104.423 187.62 102.947 187.08 102.388Z" fill="#9E9E9E"/>
<path opacity="0.85" d="M117.601 39.7394L166.114 89.8591C166.657 90.4198 168.085 89.8518 169.298 88.5903C170.519 87.3288 171.069 85.8534 170.526 85.3001L122.013 35.173C122.013 35.173 120.671 34.8631 119.008 36.6336C117.344 38.4041 117.601 39.7394 117.601 39.7394Z" fill="url(#paint3_linear_36_73)"/>
<path opacity="0.22" d="M134.186 56.8763L182.699 106.996C183.242 107.557 184.67 106.989 185.883 105.727C187.104 104.466 187.654 102.99 187.111 102.437L138.606 52.3025C138.606 52.3025 137.263 51.9927 135.6 53.7632C133.944 55.541 134.186 56.8763 134.186 56.8763Z" fill="url(#paint4_linear_36_73)"/>
<path d="M112.132 59.9894L107.877 55.5779C107.642 55.3345 107.835 54.914 108.17 54.9509L113.161 55.5189C113.353 55.541 113.532 55.4009 113.553 55.1943L114.281 48.8796C114.324 48.5107 114.81 48.4296 114.96 48.7763L117.808 55.3566C117.851 55.4525 117.937 55.5263 118.037 55.5558L124.355 57.4591C124.662 57.5476 124.705 57.9755 124.427 58.1304L119.251 61.0738C119.19 61.1086 119.141 61.1604 119.108 61.2231C119.075 61.2858 119.06 61.3568 119.065 61.4279L119.508 67.0788C119.514 67.154 119.497 67.2293 119.46 67.2944C119.424 67.3596 119.368 67.4115 119.302 67.4429C119.236 67.4744 119.161 67.484 119.09 67.4703C119.018 67.4566 118.952 67.4203 118.901 67.3665L115.367 63.6189C115.267 63.5083 115.103 63.4788 114.967 63.5378L110.576 65.5222C110.276 65.655 109.969 65.3378 110.112 65.0279L112.211 60.3878C112.268 60.2624 112.24 60.1001 112.132 59.9894Z" fill="url(#paint5_radial_36_73)"/>
<path d="M143.86 43.9664L145.424 40.4697C145.467 40.3812 145.452 40.2779 145.395 40.2041L142.832 36.7C142.697 36.5156 142.839 36.2648 143.054 36.2795L147.266 36.6115C147.359 36.6189 147.451 36.5746 147.501 36.4861L149.501 33.1443C149.622 32.9451 149.922 32.9967 149.965 33.2328L150.8 37.423C150.821 37.5263 150.893 37.6074 150.993 37.6295L154.812 38.5222C155.041 38.5738 155.084 38.891 154.877 39.0091L151.585 40.8681C151.544 40.8908 151.509 40.9248 151.485 40.9665C151.461 41.0081 151.449 41.0557 151.45 41.1041L151.585 45.5009C151.592 45.7296 151.335 45.855 151.164 45.7148L147.887 42.882C147.816 42.8156 147.716 42.8009 147.623 42.8377L144.182 44.3279C143.975 44.4091 143.76 44.1804 143.86 43.9664Z" fill="url(#paint6_radial_36_73)"/>
<path d="M107.013 29.5369L104.343 23.318C104.208 23.0082 104.508 22.7352 104.793 22.8975L110.276 25.9738C110.405 26.0475 110.562 26.0328 110.662 25.9369L116.916 19.2754C117.116 19.0762 117.473 19.2459 117.487 19.5483L116.095 27.7221C116.102 27.8475 116.173 27.9656 116.288 28.032L123.905 32.3328C124.184 32.4951 124.155 32.9082 123.863 32.9746L116.445 33.8156C116.381 33.832 116.324 33.8687 116.282 33.9203C116.24 33.9719 116.214 34.0359 116.209 34.1033L115.145 40.8533C115.124 41.141 114.788 41.2517 114.581 41.0304L110.383 35.3869C110.305 35.3058 110.198 35.2615 110.091 35.2762L101.823 36.2869C101.509 36.3164 101.302 35.9107 101.516 35.682L106.956 29.9131C107.042 29.8172 107.063 29.6697 107.013 29.5369Z" fill="url(#paint7_radial_36_73)"/>
<path d="M117.88 39.3927C118.565 42.1517 119.158 44.9476 119.386 47.8025C119.636 50.6574 119.436 53.5566 118.944 56.3747C118.437 59.1927 117.801 61.9591 117.301 64.7476C116.802 67.5362 116.402 70.3394 116.088 73.1575C115.931 74.5665 115.816 75.9829 115.681 77.3919C115.552 78.7714 115.588 80.1362 115.881 81.4345C116.195 82.7108 116.787 83.8985 117.758 84.6657C118.715 85.4403 119.957 85.8091 121.235 85.8091C123.813 85.8239 126.383 84.7542 128.703 83.3968C131.038 82.0321 133.158 80.2395 135.279 78.4468C139.534 74.8763 143.582 71.0181 147.659 67.1894C149.7 65.2714 151.735 63.3534 153.806 61.4648C155.862 59.5615 157.982 57.7247 160.167 55.9689C162.344 54.2058 164.622 52.5312 167.092 51.1664C167.692 50.8271 168.356 50.4509 169.155 50.3402C169.562 50.3033 170.012 50.3476 170.412 50.5837C170.812 50.8197 171.062 51.2107 171.226 51.5869C171.526 52.3615 171.547 53.1287 171.511 53.8665C171.469 54.6042 171.354 55.3271 171.197 56.0353C170.533 58.8533 169.398 61.487 168.12 64.0247C167.478 65.2935 166.792 66.5329 166.071 67.7501C165.343 68.9599 164.572 70.1476 163.787 71.3132C165.243 68.8935 166.6 66.4148 167.778 63.855C168.948 61.2952 169.969 58.632 170.505 55.8951C170.626 55.2091 170.726 54.523 170.748 53.8443C170.769 53.1656 170.712 52.4796 170.483 51.9337C170.362 51.6681 170.205 51.4468 169.991 51.3361C169.784 51.2255 169.52 51.196 169.241 51.2255C168.67 51.314 168.099 51.6312 167.506 51.9927C165.15 53.3722 162.951 55.0615 160.838 56.8615C152.385 64.0616 144.703 72.2648 136.178 79.5829C134.029 81.3755 131.845 83.1903 129.367 84.614C126.911 86.0157 124.184 87.1739 121.207 87.137C119.736 87.1223 118.187 86.6796 116.973 85.6763C115.738 84.6804 115.024 83.1903 114.681 81.7222C114.367 80.2395 114.331 78.7198 114.496 77.2665C114.667 75.8501 114.81 74.4263 115.003 73.0099C115.388 70.1771 115.859 67.3591 116.423 64.5632C116.994 61.7673 117.68 59.0009 118.258 56.2345C118.844 53.4755 119.151 50.6574 119.008 47.8246C118.879 44.9992 118.415 42.1886 117.88 39.3927Z" fill="#FDD835"/>
<path d="M124.141 60.4247C126.012 68.7239 120.571 78.2476 121.528 87.0411C121.956 90.3977 125.84 91.7772 131.994 88.5534C142.539 82.2239 148.765 72.9878 152.628 69.5796C150.143 74.1608 143.596 83.5739 137.435 90.1173C128.296 99.9657 116.873 98.1436 116.909 89.0108C116.623 85.9493 118.051 80.0255 118.929 77.5468C119.879 75.105 123.384 66.7911 124.141 60.4247Z" fill="url(#paint8_radial_36_73)"/>
</g>
<g clip-path="url(#clip1_36_73)">
<path d="M90.0402 84.4933L62.5052 100.92C59.6539 102.621 56.0078 101.611 54.3616 98.6648L26.5412 48.8752C24.895 45.929 25.8719 42.1617 28.7234 40.4605L56.2584 24.0342C59.1097 22.3332 62.7556 23.3426 64.402 26.289L92.2224 76.0788C93.8684 79.0249 92.8915 82.7923 90.0402 84.4933Z" fill="#E7E4CD"/>
<path d="M92.4928 76.5628L92.2226 76.0792L92.2224 76.0788L81.3333 56.5906L70.4484 37.1106L64.4017 26.2888C63.0128 23.8031 60.2004 22.696 57.6427 23.4322L66.146 38.6504C67.2109 40.5562 67.2109 42.9044 66.146 44.8102L45.2081 82.2831L54.632 99.1491C56.2782 102.095 59.9243 103.105 62.7756 101.404L90.3106 84.9776C93.1619 83.2762 94.139 79.509 92.4928 76.5628Z" fill="#C1BDAB"/>
<path d="M66.2509 51.068C62.6971 50.0112 59.0426 51.5934 57.202 54.6684L58.3542 50.2252C58.8123 48.4584 56.9743 47.0008 55.4412 47.9156L49.1482 51.6698C47.6148 52.5845 47.9173 54.9579 49.6274 55.4313L53.9275 56.6218C50.4299 56.7312 47.2764 59.2106 46.3854 62.9192C45.3209 67.3497 47.9889 71.8403 52.254 73.0295L64.5576 76.4595C66.2831 76.9403 68.0542 75.8837 68.514 74.0992L71.791 61.3745C72.9265 56.9634 70.4966 52.3306 66.2509 51.068Z" fill="#47423F"/>
<path d="M76.4004 113.724L48.8654 97.2971C46.0141 95.5961 45.0371 91.8288 46.6832 88.8824L74.5036 39.0928C76.1498 36.1466 79.7958 35.137 82.6473 36.838L110.182 53.2643C113.034 54.9653 114.011 58.7328 112.364 61.679L84.544 111.469C82.8979 114.415 79.2517 115.425 76.4004 113.724Z" fill="#E7E4CD"/>
<path d="M111.379 54.2023L82.9075 105.158C81.2614 108.104 77.6152 109.113 74.7639 107.412L46.1009 90.3132C45.3885 92.956 46.4598 95.8621 48.8655 97.2971L76.4004 113.723C79.2518 115.424 82.8979 114.415 84.5441 111.469L112.364 61.6788C113.753 59.1933 113.275 56.1231 111.379 54.2023Z" fill="#C1BDAB"/>
<path d="M87.2947 44.945C86.8253 44.6649 86.2706 44.6802 85.8283 44.9321C85.3442 44.0851 84.6601 43.3962 83.8576 42.9174C83.853 42.9149 83.8485 42.9123 83.8439 42.9097C83.8394 42.9068 83.8351 42.904 83.8305 42.9012C82.6214 42.1799 81.1468 41.9339 79.6953 42.3352C76.7924 43.138 75.0643 46.2309 75.843 49.23C76.2323 50.7296 77.1758 51.9259 78.385 52.6472C78.3897 52.6498 78.3941 52.6524 78.3988 52.655C78.403 52.6579 78.4075 52.6607 78.4122 52.6635C79.2146 53.1421 80.1342 53.4098 81.0861 53.4196C81.0961 53.9414 81.3608 54.4452 81.8302 54.7252C82.5436 55.1506 83.4553 54.8985 83.8669 54.1619L87.8413 47.0492C88.2525 46.3127 88.008 45.3705 87.2947 44.945ZM79.9011 49.9985L79.9018 49.997C79.897 49.9941 79.892 49.9917 79.8872 49.9893C79.8832 49.9863 79.8791 49.9838 79.875 49.981L79.8743 49.9823C79.3032 49.6416 78.8946 49.0915 78.7238 48.4336C78.3711 47.0753 79.1538 45.6746 80.4685 45.3109C81.1053 45.1348 81.7707 45.2255 82.3417 45.5662L82.341 45.5677C82.3458 45.5706 82.3508 45.573 82.3556 45.5754C82.3596 45.5784 82.3637 45.5809 82.3678 45.5837L82.3685 45.5824C82.9396 45.923 83.3482 46.4732 83.519 47.131C83.6927 47.7998 83.5899 48.4783 83.2852 49.0388L83.2561 49.0908C82.9388 49.6437 82.4215 50.0749 81.7743 50.2538C81.1375 50.4299 80.4721 50.3393 79.9011 49.9985Z" fill="#8D472E"/>
<path d="M71.753 105.617C72.2224 105.897 72.7771 105.881 73.2194 105.629C73.7035 106.477 74.3876 107.165 75.1901 107.644C75.1948 107.647 75.1992 107.649 75.2039 107.652C75.2083 107.655 75.2126 107.658 75.2172 107.66C76.4263 108.382 77.901 108.628 79.3524 108.226C82.2553 107.424 83.9834 104.331 83.2047 101.332C82.8154 99.832 81.8719 98.6357 80.6627 97.9144C80.6581 97.9118 80.6536 97.9092 80.649 97.9066C80.6447 97.9037 80.6402 97.9009 80.6356 97.8981C79.8331 97.4196 78.9135 97.1518 77.9617 97.142C77.9517 96.6202 77.687 96.1164 77.2175 95.8364C76.5041 95.411 75.5924 95.6631 75.1808 96.3997L71.2065 103.512C70.7952 104.249 71.0399 105.191 71.753 105.617ZM79.1468 100.563L79.1461 100.564C79.1509 100.567 79.1559 100.57 79.1607 100.572C79.1647 100.575 79.1688 100.578 79.1729 100.58L79.1736 100.579C79.7447 100.92 80.1535 101.47 80.3241 102.128C80.6768 103.486 79.8941 104.887 78.5794 105.25C77.9426 105.427 77.2772 105.336 76.7062 104.995L76.7069 104.994C76.7021 104.991 76.6971 104.988 76.6923 104.986C76.6883 104.983 76.6842 104.98 76.6801 104.978L76.6794 104.979C76.1083 104.638 75.6997 104.088 75.5289 103.43C75.3552 102.762 75.458 102.083 75.7627 101.523L75.7918 101.471C76.1091 100.918 76.6264 100.487 77.2736 100.308C77.9102 100.132 78.5757 100.222 79.1468 100.563Z" fill="#8D472E"/>
<path d="M88.3189 82.8506L76.0153 86.2806C74.2898 86.7617 72.5187 85.7048 72.0591 83.9205L68.7821 71.1958C67.646 66.7846 70.0759 62.1518 74.3214 60.8893C78.6585 59.5994 83.1478 62.2383 84.3038 66.7267C88.6436 65.5169 93.1 68.2145 94.1875 72.7405C95.252 77.1708 92.584 81.6616 88.3189 82.8506Z" fill="#8D472E"/>
<path d="M38.1123 40.8395C37.6429 41.1197 37.378 41.6235 37.3682 42.1453C36.4163 42.1548 35.4968 42.4226 34.6943 42.9012C34.6897 42.9038 34.6854 42.9067 34.6809 42.9097C34.6763 42.9121 34.6718 42.9149 34.6672 42.9174C33.4581 43.6387 32.5146 44.8353 32.1252 46.3347C31.3466 49.3336 33.0749 52.4267 35.9776 53.2295C37.4291 53.631 38.9037 53.3849 40.1128 52.6637C40.1174 52.6611 40.1217 52.6581 40.1262 52.6552C40.1308 52.6528 40.1353 52.65 40.1399 52.6476C40.9424 52.169 41.6265 51.4798 42.1106 50.6329C42.5527 50.8849 43.1076 50.8998 43.5769 50.6198C44.2901 50.1944 44.5346 49.2521 44.1232 48.5155L40.1488 41.4028C39.7374 40.6662 38.8255 40.414 38.1123 40.8395ZM39.8015 48.4338C39.6307 49.0917 39.222 49.6418 38.651 49.9825L38.6503 49.981C38.6455 49.9839 38.641 49.9871 38.6364 49.9902C38.6321 49.9924 38.6276 49.9944 38.6235 49.997L38.6242 49.9983C38.0531 50.339 37.3878 50.4297 36.7512 50.2536C35.4364 49.8899 34.6538 48.4892 35.0063 47.1309C35.1771 46.473 35.5858 45.9229 36.1568 45.5822L36.1575 45.5837C36.1623 45.5807 36.1668 45.5776 36.1714 45.5745C36.1757 45.5723 36.1802 45.5702 36.1843 45.5677L36.1836 45.5664C36.7547 45.2257 37.42 45.135 38.0568 45.3111C38.704 45.4902 39.2214 45.9212 39.5388 46.4741L39.5679 46.5261C39.8726 47.0866 39.975 47.7651 39.8015 48.4338Z" fill="black"/>
<path d="M110.927 51.9307L83.3925 35.5044C81.6688 34.4761 79.6612 34.2031 77.7378 34.7352C75.8152 35.2676 74.2083 36.5416 73.213 38.3228L54.3805 72.0275L52.6419 71.543C49.1312 70.5643 46.9733 66.8623 47.8315 63.2909C48.5351 60.3618 51.0605 58.2527 53.9721 58.1616C54.7113 58.1385 55.322 57.5589 55.4075 56.8003C55.493 56.0416 55.027 55.3329 54.3129 55.1352L50.0128 53.9447C49.7338 53.8672 49.6649 53.6426 49.6487 53.5157C49.6326 53.3886 49.6428 53.1533 49.8928 53.0043L56.1859 49.2501C56.436 49.1003 56.638 49.2092 56.7367 49.2875C56.8351 49.3656 56.9891 49.5395 56.9143 49.8275L55.762 54.2707C55.5707 55.0086 55.9318 55.7801 56.6105 56.0829C57.2893 56.3857 58.0802 56.1294 58.4693 55.4795C59.3728 53.9698 60.8532 52.8695 62.5304 52.461C63.3315 52.2657 63.8278 51.4363 63.6388 50.6088C63.4498 49.7809 62.6471 49.2682 61.8463 49.4635C61.1643 49.6298 60.5048 49.8746 59.8797 50.1888C60.0521 48.9174 59.5565 47.641 58.5514 46.8444C57.4314 45.9562 55.9178 45.8543 54.6957 46.5835L48.4026 50.3377C47.1804 51.0667 46.5094 52.4722 46.6935 53.9181C46.8589 55.2176 47.6835 56.3009 48.8383 56.7812C46.9428 58.1133 45.517 60.141 44.9384 62.5493C43.6922 67.7363 46.7993 73.1051 51.8653 74.5175L52.838 74.7886L47.7894 83.8238L27.8319 48.1054C26.5992 45.8991 27.3333 43.0679 29.4682 41.7943L57.0034 25.368C58.0377 24.7507 59.2423 24.5873 60.3961 24.9064C61.5496 25.2258 62.5138 25.9902 63.1109 27.059L68.7689 37.1847C69.1805 37.9213 70.0924 38.1734 70.8047 37.7483C71.5176 37.3231 71.7618 36.3812 71.3502 35.6448L65.6921 25.519C64.6969 23.7378 63.09 22.4636 61.1673 21.9314C59.2445 21.3989 57.2367 21.6722 55.5127 22.7006L27.9779 39.1269C24.4195 41.2499 23.196 45.968 25.2506 49.6453L46.0687 86.903L45.393 88.1126C43.3384 91.7896 44.562 96.5079 48.1206 98.6309L75.6556 115.057C76.8038 115.742 78.078 116.092 79.3692 116.092C80.0164 116.092 80.6682 116.004 81.3103 115.826C83.2329 115.294 84.8398 114.02 85.8351 112.239L113.655 62.449C115.71 58.772 114.486 54.0535 110.927 51.9307ZM111.074 60.909L83.2535 110.699C82.6562 111.767 81.692 112.532 80.5387 112.851C79.3851 113.17 78.1803 113.007 77.146 112.39L49.611 95.9633C48.5767 95.3462 47.8368 94.3503 47.5279 93.1582C47.2189 91.9662 47.3774 90.7214 47.9746 89.6526L75.7948 39.8628C76.6221 38.3822 78.128 37.5536 79.6744 37.5536C80.4323 37.5536 81.2001 37.7528 81.9025 38.1716L109.437 54.5979C111.572 55.8718 112.306 58.7029 111.074 60.909Z" fill="black"/>
<path d="M90.9123 66.0755C90.1878 65.6718 89.2838 65.9518 88.8931 66.7002C88.5024 67.4488 88.7731 68.3829 89.4976 68.7866C91.1147 69.6875 92.297 71.2636 92.7409 73.1114C93.5993 76.6832 91.4413 80.385 87.9305 81.3636L75.6272 84.7935C75.1774 84.9189 74.7093 84.8559 74.3075 84.6163C73.9059 84.3767 73.6187 83.9889 73.4993 83.5243L70.2223 70.7994C69.2872 67.1686 71.3111 63.3866 74.7335 62.3685C76.4399 61.8614 78.228 62.0779 79.7678 62.9788C81.3078 63.8799 82.4071 65.3516 82.8631 67.1223C83.075 67.9443 83.891 68.4336 84.6867 68.2145C85.4822 67.9958 85.9554 67.1522 85.7437 66.3302C85.0799 63.7528 83.479 61.6111 81.2362 60.2987C78.9939 58.9867 76.3915 58.6706 73.9089 59.409C68.9383 60.8872 65.9922 66.3523 67.3413 71.5915L70.6184 84.3164C70.9432 85.5779 71.7241 86.6317 72.8168 87.2836C73.5427 87.7167 74.3486 87.938 75.1653 87.938C75.578 87.938 75.9938 87.8816 76.4031 87.7674L88.7067 84.3374C93.7724 82.9251 96.88 77.5563 95.6335 72.3693C94.9881 69.6814 93.2667 67.3873 90.9123 66.0755Z" fill="black"/>
</g>
<g clip-path="url(#clip2_36_73)">
<path d="M19.7528 82.8764C21.0176 78.7319 33.3316 70.7971 67.9112 82.0639C102.491 93.3307 108.173 107.129 106.908 111.273C105.643 115.418 86.2514 108.671 62.1846 100.829C38.119 92.9879 18.4881 87.0207 19.7528 82.8764Z" fill="#424953"/>
<path d="M46.7261 151.484C63.7739 157.038 78.363 159.021 79.3116 155.913L92.9535 104.666C92.9535 104.666 86.8367 98.5456 65.0479 91.4464C43.2592 84.3471 34.8523 85.7356 34.8523 85.7356L17.5744 135.798C16.6258 138.906 29.6772 145.929 46.7261 151.484Z" fill="#646C77"/>
<path d="M32.2913 93.1498C32.2913 93.1498 40.9695 91.8499 62.7583 98.9492C84.547 106.048 90.9337 112.257 90.9337 112.257L92.9535 104.666C92.9535 104.666 86.8367 98.5456 65.0479 91.4463C43.2592 84.3471 34.8523 85.7356 34.8523 85.7356L32.2913 93.1498Z" fill="#EC5564"/>
<g opacity="0.2">
<path d="M46.7261 151.484C47.3352 151.682 47.9414 151.875 48.5444 152.066C32.3949 146.615 20.293 139.978 21.2076 136.981L38.8491 85.7083L34.8521 85.7355L17.5742 135.797C16.6258 138.906 29.6771 145.929 46.7261 151.484Z" fill="white"/>
</g>
<path d="M17.5744 135.798C18.523 132.689 33.1124 134.672 50.1614 140.227C67.2092 145.781 80.2602 152.804 79.3116 155.913C78.363 159.021 63.7738 157.038 46.7261 151.484C29.6772 145.929 16.6258 138.906 17.5744 135.798Z" fill="#59616B"/>
</g>
<defs>
<linearGradient id="paint0_linear_36_73" x1="150.155" y1="73.3759" x2="154.721" y2="68.957" gradientUnits="userSpaceOnUse">
<stop offset="0.595" stop-color="#616161"/>
<stop offset="0.775" stop-color="#565656"/>
<stop offset="1" stop-color="#424242"/>
</linearGradient>
<linearGradient id="paint1_linear_36_73" x1="123.34" y1="44.8591" x2="128.343" y2="40.0175" gradientUnits="userSpaceOnUse">
<stop offset="0.262" stop-color="#F5F5F5"/>
<stop offset="0.466" stop-color="#EAEAEA"/>
<stop offset="0.822" stop-color="#CDCDCD"/>
<stop offset="0.989" stop-color="#BDBDBD"/>
</linearGradient>
<linearGradient id="paint2_linear_36_73" x1="176.856" y1="100.163" x2="181.871" y2="95.309" gradientUnits="userSpaceOnUse">
<stop offset="0.262" stop-color="#F5F5F5"/>
<stop offset="0.466" stop-color="#EAEAEA"/>
<stop offset="0.822" stop-color="#CDCDCD"/>
<stop offset="0.989" stop-color="#BDBDBD"/>
</linearGradient>
<linearGradient id="paint3_linear_36_73" x1="141.609" y1="59.9776" x2="116.1" y2="35.2897" gradientUnits="userSpaceOnUse">
<stop stop-color="#FADA80" stop-opacity="0"/>
<stop offset="1" stop-color="#FADA80"/>
</linearGradient>
<linearGradient id="paint4_linear_36_73" x1="192.225" y1="112.278" x2="174.571" y2="95.1924" gradientUnits="userSpaceOnUse">
<stop stop-color="#1A237E"/>
<stop offset="0.186" stop-color="#1D2A87" stop-opacity="0.814"/>
<stop offset="0.49" stop-color="#243DA0" stop-opacity="0.51"/>
<stop offset="0.873" stop-color="#2F5CC7" stop-opacity="0.127"/>
<stop offset="1" stop-color="#3367D6" stop-opacity="0"/>
</linearGradient>
<radialGradient id="paint5_radial_36_73" cx="0" cy="0" r="1" gradientUnits="userSpaceOnUse" gradientTransform="translate(115.17 54.4221) rotate(-87.925) scale(10.9058 10.5555)">
<stop stop-color="#FFEB3B"/>
<stop offset="1" stop-color="#FBC02D"/>
</radialGradient>
<radialGradient id="paint6_radial_36_73" cx="0" cy="0" r="1" gradientUnits="userSpaceOnUse" gradientTransform="translate(144.765 37.9347) rotate(-109.491) scale(8.73333 8.51573)">
<stop stop-color="#FFEB3B"/>
<stop offset="1" stop-color="#FBC02D"/>
</radialGradient>
<radialGradient id="paint7_radial_36_73" cx="0" cy="0" r="1" gradientUnits="userSpaceOnUse" gradientTransform="translate(112.288 30.7341) rotate(15.1782) scale(11.4682 12.754)">
<stop offset="0.325" stop-color="#FFEB3B"/>
<stop offset="1" stop-color="#FBC02D"/>
</radialGradient>
<radialGradient id="paint8_radial_36_73" cx="0" cy="0" r="1" gradientUnits="userSpaceOnUse" gradientTransform="translate(148.735 41.9948) rotate(-60.1203) scale(68.5724 40.4396)">
<stop stop-color="#FFEE58" stop-opacity="0"/>
<stop offset="1" stop-color="#FDD835"/>
</radialGradient>
<clipPath id="clip0_36_73">
<rect width="94.4264" height="91.3853" fill="white" transform="matrix(0 -1 1 0 98.696 110.426)"/>
</clipPath>
<clipPath id="clip1_36_73">
<rect width="91.3853" height="94.4264" fill="white" transform="translate(23.7602 21.6656)"/>
</clipPath>
<clipPath id="clip2_36_73">
<rect width="91.6645" height="94.1554" fill="white" transform="matrix(-0.950804 -0.309793 0.291884 -0.956454 87.1549 176)"/>
</clipPath>
</defs>
</svg>
