<svg width="386" height="90" viewBox="0 0 386 90" fill="none" xmlns="http://www.w3.org/2000/svg">
<path d="M9.75 47V43.875H6.625V40.75H3.5V25.125H6.625V22H9.75V40.75H22.25V34.5H12.875V31.375H28.5V43.875H25.375V47H9.75ZM22.25 25.125V22H9.75V18.875H25.375V22H28.5V25.125H22.25ZM34.75 47V43.875H31.625V31.375H37.875V43.875H44.125V31.375H50.375V43.875H47.25V47H34.75ZM69.125 37.625V34.5H72.25V37.625H69.125ZM56.625 47V43.875H53.5V34.5H56.625V31.375H69.125V34.5H59.75V37.625H69.125V40.75H59.75V43.875H72.25V47H56.625ZM75.375 47V43.875H91V47H75.375ZM91 43.875V40.75H94.125V43.875H91ZM78.5 40.75V37.625H91V40.75H78.5ZM75.375 37.625V34.5H78.5V37.625H75.375ZM78.5 34.5V31.375H94.125V34.5H78.5ZM97.25 47V43.875H112.875V47H97.25ZM112.875 43.875V40.75H116V43.875H112.875ZM100.375 40.75V37.625H112.875V40.75H100.375ZM97.25 37.625V34.5H100.375V37.625H97.25ZM100.375 34.5V31.375H116V34.5H100.375ZM122.25 47V34.5H119.125V31.375H128.5V47H122.25ZM122.25 28.25V22H128.5V28.25H122.25ZM131.625 47V31.375H147.25V34.5H150.375V47H144.125V34.5H137.875V47H131.625ZM166 43.875V34.5H159.75V43.875H166ZM156.625 53.25V50.125H166V47H156.625V43.875H153.5V34.5H156.625V31.375H172.25V50.125H169.125V53.25H156.625ZM191 47V43.875H187.875V40.75H184.75V25.125H187.875V22H191V40.75H203.5V34.5H194.125V31.375H209.75V43.875H206.625V47H191ZM203.5 25.125V22H191V18.875H206.625V22H209.75V25.125H203.5ZM216 47V43.875H225.375V47H216ZM212.875 43.875V40.75H216V43.875H212.875ZM228.5 47V43.875H225.375V40.75H216V37.625H225.375V34.5H212.875V31.375H228.5V34.5H231.625V47H228.5ZM234.75 47V34.5H237.875V31.375H247.25V34.5H250.375V47H244.125V34.5H241V47H234.75ZM253.5 47V34.5H250.375V31.375H256.625V34.5H259.75V47H253.5ZM278.5 37.625V34.5H281.625V37.625H278.5ZM266 47V43.875H262.875V34.5H266V31.375H278.5V34.5H269.125V37.625H278.5V40.75H269.125V43.875H281.625V47H266Z" fill="white"/>
<path d="M384.395 50.7812L381.973 53.1992L346.336 17.5625L348.754 15.1445L384.395 50.7812Z" fill="url(#paint0_linear_17_35)"/>
<path d="M347.117 15.9219C346.238 16.8008 346.336 17.5586 346.336 17.5586L352.633 23.8555C352.551 23.4844 352.867 22.832 353.445 22.25C354.023 21.6719 354.676 21.3555 355.051 21.4375L348.754 15.1406C348.754 15.1445 348 15.043 347.117 15.9219Z" fill="url(#paint1_linear_17_35)"/>
<path d="M376.391 45.1953C375.512 46.0742 375.609 46.832 375.609 46.832L381.922 53.1484C381.84 52.7773 382.141 52.1055 382.719 51.5234C383.297 50.9453 383.973 50.6445 384.344 50.7266L378.027 44.4141C378.027 44.4141 377.27 44.3164 376.391 45.1953Z" fill="url(#paint2_linear_17_35)"/>
<path d="M384.358 50.7435C384.062 50.4476 383.28 50.7493 382.612 51.4175C381.944 52.0857 381.642 52.8673 381.938 53.1632C382.234 53.4591 383.016 53.1574 383.684 52.4892C384.352 51.821 384.654 51.0395 384.358 50.7435Z" fill="#9E9E9E"/>
<path opacity="0.85" d="M346.344 17.5703L372.887 44.1094C373.184 44.4062 373.965 44.1055 374.629 43.4375C375.297 42.7695 375.598 41.9883 375.301 41.6953L348.758 15.1523C348.758 15.1523 348.023 14.9883 347.113 15.9258C346.203 16.8633 346.344 17.5703 346.344 17.5703Z" fill="url(#paint3_linear_17_35)"/>
<path opacity="0.22" d="M355.418 26.6445L381.961 53.1836C382.258 53.4805 383.039 53.1797 383.703 52.5117C384.371 51.8437 384.672 51.0625 384.375 50.7695L357.836 24.2227C357.836 24.2227 357.102 24.0586 356.191 24.9961C355.285 25.9375 355.418 26.6445 355.418 26.6445Z" fill="url(#paint4_linear_17_35)"/>
<path d="M343.352 28.293L341.023 25.957C340.895 25.8281 341 25.6055 341.184 25.625L343.914 25.9258C344.02 25.9375 344.117 25.8633 344.129 25.7539L344.527 22.4101C344.551 22.2148 344.816 22.1719 344.898 22.3555L346.457 25.8398C346.48 25.8906 346.527 25.9297 346.582 25.9453L350.039 26.9531C350.207 27 350.23 27.2265 350.078 27.3086L347.246 28.8672C347.213 28.8856 347.186 28.913 347.168 28.9462C347.15 28.9794 347.142 29.017 347.145 29.0547L347.387 32.0469C347.39 32.0867 347.381 32.1266 347.361 32.1611C347.341 32.1956 347.311 32.223 347.274 32.2397C347.238 32.2564 347.197 32.2614 347.158 32.2542C347.119 32.2469 347.083 32.2277 347.055 32.1992L345.121 30.2148C345.066 30.1562 344.977 30.1406 344.902 30.1719L342.5 31.2226C342.336 31.293 342.168 31.125 342.246 30.9609L343.395 28.5039C343.426 28.4375 343.41 28.3515 343.352 28.293Z" fill="url(#paint5_radial_17_35)"/>
<path d="M360.711 19.8086L361.566 17.957C361.59 17.9102 361.582 17.8555 361.551 17.8164L360.148 15.9609C360.074 15.8633 360.152 15.7305 360.27 15.7383L362.574 15.9141C362.625 15.918 362.676 15.8945 362.703 15.8477L363.797 14.0781C363.863 13.9727 364.027 14 364.051 14.125L364.508 16.3438C364.52 16.3984 364.559 16.4414 364.613 16.4531L366.703 16.9258C366.828 16.9531 366.852 17.1211 366.738 17.1836L364.938 18.168C364.915 18.18 364.896 18.198 364.883 18.2201C364.87 18.2421 364.863 18.2673 364.863 18.293L364.938 20.6211C364.941 20.7422 364.801 20.8086 364.707 20.7344L362.914 19.2344C362.875 19.1992 362.82 19.1914 362.77 19.2109L360.887 20C360.773 20.043 360.656 19.9219 360.711 19.8086Z" fill="url(#paint6_radial_17_35)"/>
<path d="M340.551 12.168L339.09 8.87499C339.016 8.71092 339.18 8.56639 339.336 8.65233L342.336 10.2812C342.406 10.3203 342.492 10.3125 342.547 10.2617L345.969 6.73436C346.078 6.62889 346.273 6.71874 346.281 6.87889L345.52 11.207C345.523 11.2734 345.562 11.3359 345.625 11.3711L349.793 13.6484C349.945 13.7344 349.93 13.9531 349.77 13.9883L345.711 14.4336C345.676 14.4423 345.645 14.4617 345.622 14.489C345.599 14.5163 345.585 14.5502 345.582 14.5859L345 18.1601C344.988 18.3125 344.805 18.3711 344.691 18.2539L342.395 15.2656C342.352 15.2226 342.293 15.1992 342.234 15.207L337.711 15.7422C337.539 15.7578 337.426 15.543 337.543 15.4219L340.52 12.3672C340.566 12.3164 340.578 12.2383 340.551 12.168Z" fill="url(#paint7_radial_17_35)"/>
<path d="M346.496 17.3867C346.871 18.8477 347.195 20.3281 347.32 21.8398C347.457 23.3516 347.348 24.8867 347.078 26.3789C346.801 27.8711 346.453 29.3359 346.18 30.8125C345.906 32.2891 345.687 33.7734 345.516 35.2656C345.43 36.0117 345.367 36.7617 345.293 37.5078C345.223 38.2383 345.242 38.9609 345.402 39.6484C345.574 40.3242 345.898 40.9531 346.43 41.3594C346.953 41.7695 347.633 41.9648 348.332 41.9648C349.742 41.9727 351.148 41.4063 352.418 40.6875C353.695 39.9648 354.855 39.0156 356.016 38.0664C358.344 36.1758 360.559 34.1328 362.789 32.1055C363.906 31.0898 365.02 30.0742 366.152 29.0742C367.277 28.0664 368.437 27.0938 369.633 26.1641C370.824 25.2305 372.07 24.3438 373.422 23.6211C373.75 23.4414 374.113 23.2422 374.551 23.1836C374.773 23.1641 375.02 23.1875 375.238 23.3125C375.457 23.4375 375.594 23.6445 375.684 23.8438C375.848 24.2539 375.859 24.6602 375.84 25.0508C375.816 25.4414 375.754 25.8242 375.668 26.1992C375.305 27.6914 374.684 29.0859 373.984 30.4297C373.633 31.1016 373.258 31.7578 372.863 32.4023C372.465 33.043 372.043 33.6719 371.613 34.2891C372.41 33.0078 373.152 31.6953 373.797 30.3398C374.437 28.9844 374.996 27.5742 375.289 26.125C375.355 25.7617 375.41 25.3984 375.422 25.0391C375.434 24.6797 375.402 24.3164 375.277 24.0273C375.211 23.8867 375.125 23.7695 375.008 23.7109C374.895 23.6523 374.75 23.6367 374.598 23.6523C374.285 23.6992 373.973 23.8672 373.648 24.0586C372.359 24.7891 371.156 25.6836 370 26.6367C365.375 30.4492 361.172 34.793 356.508 38.668C355.332 39.6172 354.137 40.5781 352.781 41.332C351.437 42.0742 349.945 42.6875 348.316 42.668C347.512 42.6602 346.664 42.4258 346 41.8945C345.324 41.3672 344.934 40.5781 344.746 39.8008C344.574 39.0156 344.555 38.2109 344.645 37.4414C344.738 36.6914 344.816 35.9375 344.922 35.1875C345.133 33.6875 345.391 32.1953 345.699 30.7148C346.012 29.2344 346.387 27.7695 346.703 26.3047C347.023 24.8438 347.191 23.3516 347.113 21.8516C347.043 20.3555 346.789 18.8672 346.496 17.3867Z" fill="#FDD835"/>
<path d="M349.922 28.5234C350.945 32.918 347.969 37.9609 348.492 42.6172C348.727 44.3945 350.852 45.125 354.219 43.418C359.988 40.0664 363.395 35.1758 365.508 33.3711C364.148 35.7969 360.566 40.7813 357.195 44.2461C352.195 49.4609 345.945 48.4961 345.965 43.6602C345.809 42.0391 346.59 38.9024 347.07 37.5899C347.59 36.2969 349.508 31.8945 349.922 28.5234Z" fill="url(#paint8_radial_17_35)"/>
<g clip-path="url(#clip0_17_35)">
<path d="M331.264 41.2681L316.199 49.966C314.639 50.8667 312.644 50.3322 311.743 48.7721L296.522 22.4078C295.621 20.8478 296.155 18.8529 297.716 17.9522L312.781 9.25421C314.341 8.35353 316.336 8.888 317.237 10.4482L332.458 36.8125C333.359 38.3725 332.824 40.3674 331.264 41.2681Z" fill="#E7E4CD"/>
<path d="M332.606 37.0687L332.458 36.8127L332.458 36.8125L326.5 26.4932L320.545 16.1783L317.236 10.448C316.476 9.13182 314.938 8.54559 313.538 8.93544L318.191 16.9936C318.773 18.0028 318.773 19.2462 318.191 20.2554L306.735 40.0977L311.891 49.0285C312.792 50.5886 314.787 51.1231 316.347 50.2224L331.412 41.5245C332.972 40.6236 333.507 38.6288 332.606 37.0687Z" fill="#C1BDAB"/>
<path d="M318.248 23.569C316.304 23.0094 314.304 23.8472 313.297 25.4754L313.928 23.1227C314.178 22.1871 313.173 21.4153 312.334 21.8997L308.891 23.8876C308.052 24.372 308.217 25.6287 309.153 25.8794L311.506 26.5098C309.592 26.5677 307.867 27.8806 307.379 29.8443C306.797 32.1903 308.256 34.5682 310.59 35.1979L317.322 37.0141C318.266 37.2687 319.235 36.7092 319.486 35.7643L321.279 29.0264C321.901 26.6906 320.571 24.2375 318.248 23.569Z" fill="#47423F"/>
<path d="M323.801 56.7459L308.736 48.0478C307.176 47.1472 306.641 45.1523 307.542 43.5922L322.763 17.2279C323.664 15.6679 325.659 15.1333 327.219 16.034L342.284 24.7319C343.845 25.6326 344.379 27.6275 343.478 29.1876L328.257 55.5519C327.356 57.112 325.361 57.6466 323.801 56.7459Z" fill="#E7E4CD"/>
<path d="M342.939 25.2286L327.362 52.2102C326.461 53.7702 324.466 54.3048 322.906 53.4041L307.223 44.3498C306.834 45.7492 307.42 47.288 308.736 48.0478L323.801 56.7458C325.361 57.6465 327.356 57.112 328.257 55.5519L343.478 29.1875C344.238 27.8714 343.977 26.2457 342.939 25.2286Z" fill="#C1BDAB"/>
<path d="M329.762 20.3268C329.505 20.1784 329.202 20.1865 328.96 20.3199C328.695 19.8714 328.32 19.5067 327.881 19.2531C327.879 19.2518 327.876 19.2504 327.874 19.249C327.871 19.2475 327.869 19.246 327.867 19.2445C327.205 18.8626 326.398 18.7323 325.604 18.9448C324.016 19.3699 323.07 21.0076 323.496 22.5957C323.709 23.3898 324.225 24.0233 324.887 24.4052C324.89 24.4066 324.892 24.4079 324.895 24.4093C324.897 24.4109 324.899 24.4123 324.902 24.4138C325.341 24.6672 325.844 24.809 326.365 24.8142C326.37 25.0904 326.515 25.3572 326.772 25.5055C327.162 25.7308 327.661 25.5973 327.886 25.2072L330.061 21.4409C330.286 21.051 330.152 20.5521 329.762 20.3268ZM325.717 23.0027L325.717 23.0019C325.714 23.0003 325.712 22.999 325.709 22.9978C325.707 22.9962 325.705 22.9948 325.702 22.9934L325.702 22.9941C325.389 22.8137 325.166 22.5224 325.072 22.174C324.879 21.4548 325.308 20.7131 326.027 20.5205C326.375 20.4273 326.74 20.4753 327.052 20.6557L327.052 20.6565C327.054 20.658 327.057 20.6593 327.06 20.6606C327.062 20.6621 327.064 20.6635 327.066 20.665L327.067 20.6643C327.379 20.8446 327.603 21.136 327.696 21.4843C327.791 21.8384 327.735 22.1977 327.568 22.4944L327.552 22.522C327.379 22.8148 327.096 23.0431 326.742 23.1378C326.393 23.2311 326.029 23.1831 325.717 23.0027Z" fill="#8D472E"/>
<path d="M321.258 52.4531C321.515 52.6015 321.819 52.5934 322.061 52.46C322.326 52.9085 322.7 53.2732 323.139 53.5268C323.142 53.5281 323.144 53.5295 323.147 53.5309C323.149 53.5324 323.151 53.5339 323.154 53.5354C323.815 53.9173 324.622 54.0476 325.416 53.8351C327.005 53.41 327.95 51.7723 327.524 50.1842C327.311 49.3901 326.795 48.7566 326.133 48.3747C326.131 48.3733 326.128 48.372 326.126 48.3706C326.123 48.369 326.121 48.3676 326.118 48.3661C325.679 48.1127 325.176 47.9709 324.655 47.9657C324.65 47.6895 324.505 47.4227 324.248 47.2744C323.858 47.0491 323.359 47.1826 323.134 47.5727L320.959 51.339C320.734 51.7289 320.868 52.2277 321.258 52.4531ZM325.304 49.7771L325.304 49.7779C325.306 49.7795 325.309 49.7808 325.312 49.782C325.314 49.7836 325.316 49.785 325.318 49.7864L325.319 49.7857C325.631 49.9661 325.855 50.2574 325.948 50.6058C326.141 51.325 325.713 52.0667 324.993 52.2593C324.645 52.3525 324.281 52.3045 323.969 52.1241L323.969 52.1233C323.966 52.1218 323.964 52.1205 323.961 52.1192C323.959 52.1177 323.957 52.1163 323.954 52.1148L323.954 52.1155C323.641 51.9352 323.418 51.6438 323.324 51.2955C323.229 50.9414 323.286 50.5821 323.452 50.2854L323.468 50.2578C323.642 49.965 323.925 49.7367 324.279 49.642C324.627 49.5487 324.991 49.5968 325.304 49.7771Z" fill="#8D472E"/>
<path d="M330.322 40.3982L323.591 42.2145C322.646 42.4692 321.677 41.9096 321.426 40.9647L319.633 34.2269C319.011 31.8911 320.341 29.438 322.664 28.7694C325.037 28.0864 327.493 29.4838 328.125 31.8605C330.5 31.2198 332.938 32.6482 333.533 35.0448C334.116 37.3907 332.656 39.7687 330.322 40.3982Z" fill="#8D472E"/>
<path d="M302.853 18.1528C302.596 18.3012 302.451 18.568 302.445 18.8442C301.925 18.8493 301.421 18.9911 300.982 19.2445C300.98 19.2459 300.978 19.2475 300.975 19.249C300.973 19.2503 300.97 19.2518 300.968 19.2531C300.306 19.6351 299.79 20.2687 299.577 21.0626C299.151 22.6506 300.096 24.2884 301.685 24.7135C302.479 24.9261 303.286 24.7958 303.947 24.4139C303.95 24.4125 303.952 24.4109 303.954 24.4094C303.957 24.4081 303.959 24.4066 303.962 24.4054C304.401 24.152 304.775 23.787 305.04 23.3386C305.282 23.472 305.586 23.4799 305.842 23.3316C306.233 23.1063 306.366 22.6074 306.141 22.2174L303.967 18.4511C303.742 18.061 303.243 17.9275 302.853 18.1528ZM303.777 22.1741C303.683 22.5225 303.46 22.8138 303.147 22.9941L303.147 22.9934C303.144 22.9949 303.142 22.9966 303.139 22.9982C303.137 22.9994 303.134 23.0005 303.132 23.0019L303.133 23.0025C302.82 23.1829 302.456 23.231 302.108 23.1377C301.388 22.9451 300.96 22.2034 301.153 21.4842C301.247 21.1358 301.47 20.8445 301.783 20.6642L301.783 20.6649C301.786 20.6634 301.788 20.6617 301.791 20.6601C301.793 20.6589 301.795 20.6578 301.798 20.6564L301.797 20.6558C302.11 20.4754 302.474 20.4273 302.822 20.5206C303.176 20.6154 303.459 20.8437 303.633 21.1364L303.649 21.164C303.816 21.4607 303.872 21.82 303.777 22.1741Z" fill="black"/>
<path d="M342.692 24.0258L327.627 15.3278C326.684 14.7833 325.585 14.6388 324.533 14.9205C323.481 15.2024 322.602 15.877 322.057 16.8202L311.753 34.6673L310.802 34.4107C308.881 33.8925 307.701 31.9322 308.17 30.0411C308.555 28.4901 309.937 27.3733 311.53 27.3251C311.934 27.3129 312.269 27.0059 312.315 26.6043C312.362 26.2025 312.107 25.8272 311.716 25.7225L309.364 25.0922C309.211 25.0512 309.173 24.9322 309.164 24.865C309.156 24.7977 309.161 24.6731 309.298 24.5942L312.741 22.6063C312.878 22.527 312.989 22.5847 313.043 22.6262C313.096 22.6675 313.181 22.7596 313.14 22.9121L312.509 25.2648C312.405 25.6556 312.602 26.064 312.974 26.2244C313.345 26.3848 313.778 26.249 313.991 25.9049C314.485 25.1055 315.295 24.5228 316.213 24.3065C316.651 24.2031 316.922 23.764 316.819 23.3258C316.716 22.8874 316.276 22.6159 315.838 22.7193C315.465 22.8074 315.104 22.937 314.762 23.1034C314.857 22.4302 314.585 21.7543 314.035 21.3325C313.423 20.8622 312.595 20.8082 311.926 21.1943L308.483 23.1822C307.814 23.5682 307.447 24.3125 307.548 25.0781C307.638 25.7662 308.089 26.3398 308.721 26.5941C307.684 27.2995 306.904 28.3732 306.587 29.6484C305.905 32.395 307.605 35.2379 310.377 35.9857L310.909 36.1293L308.147 40.9136L297.228 22.0002C296.553 20.8319 296.955 19.3328 298.123 18.6584L313.188 9.96044C313.754 9.63358 314.413 9.54706 315.045 9.716C315.676 9.88514 316.203 10.2899 316.53 10.8558L319.626 16.2176C319.851 16.6076 320.35 16.7411 320.74 16.516C321.13 16.2908 321.263 15.7921 321.038 15.4021L317.942 10.0404C317.398 9.09725 316.519 8.42254 315.467 8.14071C314.415 7.85878 313.316 8.0035 312.373 8.54803L297.308 17.246C295.361 18.3701 294.691 20.8684 295.815 22.8156L307.206 42.544L306.836 43.1846C305.712 45.1315 306.381 47.63 308.328 48.7541L323.394 57.452C324.022 57.8147 324.719 58 325.426 58C325.78 58 326.136 57.9534 326.488 57.8593C327.54 57.5773 328.419 56.9027 328.963 55.9596L344.185 29.5953C345.309 27.6483 344.639 25.1498 342.692 24.0258ZM342.772 28.7799L327.551 55.1441C327.224 55.71 326.696 56.1149 326.065 56.284C325.434 56.4527 324.775 56.3664 324.209 56.0395L309.144 47.3416C308.578 47.0148 308.173 46.4875 308.004 45.8562C307.835 45.2251 307.922 44.5659 308.249 44L323.47 17.6356C323.923 16.8516 324.746 16.4129 325.593 16.4129C326.007 16.4129 326.427 16.5183 326.812 16.7401L341.877 25.4381C343.045 26.1126 343.447 27.6117 342.772 28.7799Z" fill="black"/>
<path d="M331.741 31.5156C331.345 31.3018 330.85 31.4501 330.636 31.8464C330.423 32.2428 330.571 32.7374 330.967 32.9512C331.852 33.4282 332.499 34.2628 332.742 35.2412C333.211 37.1325 332.031 39.0927 330.11 39.6108L323.378 41.427C323.132 41.4935 322.876 41.4601 322.656 41.3332C322.436 41.2063 322.279 41.001 322.214 40.755L320.421 34.017C319.909 32.0944 321.017 30.0918 322.889 29.5527C323.823 29.2842 324.801 29.3988 325.644 29.8759C326.486 30.353 327.088 31.1323 327.337 32.0699C327.453 32.5052 327.9 32.7643 328.335 32.6482C328.77 32.5324 329.029 32.0857 328.913 31.6505C328.55 30.2857 327.674 29.1517 326.447 28.4567C325.22 27.762 323.796 27.5946 322.438 27.9856C319.718 28.7684 318.107 31.6622 318.845 34.4364L320.638 41.1744C320.815 41.8424 321.243 42.4004 321.841 42.7456C322.238 42.9749 322.679 43.0921 323.125 43.0921C323.351 43.0921 323.579 43.0622 323.803 43.0018L330.534 41.1855C333.306 40.4377 335.006 37.5948 334.324 34.8482C333.971 33.425 333.029 32.2102 331.741 31.5156Z" fill="black"/>
</g>
<g clip-path="url(#clip1_17_35)">
<path d="M292.807 40.4119C293.499 38.2173 300.237 34.0157 319.157 39.9816C338.076 45.9475 341.185 53.2539 340.493 55.4484C339.801 57.643 329.191 54.0702 316.023 49.918C302.856 45.7661 292.115 42.6063 292.807 40.4119Z" fill="#424953"/>
<path d="M307.565 76.7403C316.893 79.6816 324.875 80.7315 325.394 79.0856L332.858 51.9499C332.858 51.9499 329.511 48.7089 317.59 44.9498C305.669 41.1906 301.069 41.9258 301.069 41.9258L291.616 68.4343C291.097 70.0801 298.237 73.7989 307.565 76.7403Z" fill="#646C77"/>
<path d="M299.668 45.8518C299.668 45.8518 304.416 45.1635 316.337 48.9227C328.259 52.6818 331.753 55.9692 331.753 55.9692L332.858 51.9499C332.858 51.9499 329.511 48.7089 317.59 44.9498C305.669 41.1906 301.069 41.9259 301.069 41.9259L299.668 45.8518Z" fill="#EC5564"/>
<g opacity="0.2">
<path d="M307.565 76.7404C307.899 76.8454 308.23 76.9477 308.56 77.0484C299.724 74.1622 293.103 70.648 293.603 69.0611L303.256 41.9114L301.069 41.9258L291.615 68.4343C291.097 70.0802 298.237 73.799 307.565 76.7404Z" fill="white"/>
</g>
<path d="M291.616 68.4343C292.135 66.7883 300.117 67.8383 309.445 70.7797C318.772 73.7209 325.913 77.4397 325.394 79.0856C324.875 80.7315 316.893 79.6815 307.565 76.7403C298.237 73.7989 291.097 70.0801 291.616 68.4343Z" fill="#59616B"/>
</g>
<defs>
<linearGradient id="paint0_linear_17_35" x1="364.155" y1="35.3813" x2="366.574" y2="32.9622" gradientUnits="userSpaceOnUse">
<stop offset="0.595" stop-color="#616161"/>
<stop offset="0.775" stop-color="#565656"/>
<stop offset="1" stop-color="#424242"/>
</linearGradient>
<linearGradient id="paint1_linear_17_35" x1="349.484" y1="20.2813" x2="352.134" y2="17.6309" gradientUnits="userSpaceOnUse">
<stop offset="0.262" stop-color="#F5F5F5"/>
<stop offset="0.466" stop-color="#EAEAEA"/>
<stop offset="0.822" stop-color="#CDCDCD"/>
<stop offset="0.989" stop-color="#BDBDBD"/>
</linearGradient>
<linearGradient id="paint2_linear_17_35" x1="378.764" y1="49.5652" x2="381.421" y2="46.9082" gradientUnits="userSpaceOnUse">
<stop offset="0.262" stop-color="#F5F5F5"/>
<stop offset="0.466" stop-color="#EAEAEA"/>
<stop offset="0.822" stop-color="#CDCDCD"/>
<stop offset="0.989" stop-color="#BDBDBD"/>
</linearGradient>
<linearGradient id="paint3_linear_17_35" x1="359.479" y1="28.2867" x2="345.964" y2="14.7719" gradientUnits="userSpaceOnUse">
<stop stop-color="#FADA80" stop-opacity="0"/>
<stop offset="1" stop-color="#FADA80"/>
</linearGradient>
<linearGradient id="paint4_linear_17_35" x1="387.173" y1="55.9805" x2="377.82" y2="46.6273" gradientUnits="userSpaceOnUse">
<stop stop-color="#1A237E"/>
<stop offset="0.186" stop-color="#1D2A87" stop-opacity="0.814"/>
<stop offset="0.49" stop-color="#243DA0" stop-opacity="0.51"/>
<stop offset="0.873" stop-color="#2F5CC7" stop-opacity="0.127"/>
<stop offset="1" stop-color="#3367D6" stop-opacity="0"/>
</linearGradient>
<radialGradient id="paint5_radial_17_35" cx="0" cy="0" r="1" gradientUnits="userSpaceOnUse" gradientTransform="translate(345.014 25.345) rotate(-87.856) scale(5.775)">
<stop stop-color="#FFEB3B"/>
<stop offset="1" stop-color="#FBC02D"/>
</radialGradient>
<radialGradient id="paint6_radial_17_35" cx="0" cy="0" r="1" gradientUnits="userSpaceOnUse" gradientTransform="translate(361.206 16.6147) rotate(-110.089) scale(4.6418)">
<stop stop-color="#FFEB3B"/>
<stop offset="1" stop-color="#FBC02D"/>
</radialGradient>
<radialGradient id="paint7_radial_17_35" cx="0" cy="0" r="1" gradientUnits="userSpaceOnUse" gradientTransform="translate(343.437 12.8019) rotate(14.7109) scale(6.26099 6.76814)">
<stop offset="0.325" stop-color="#FFEB3B"/>
<stop offset="1" stop-color="#FBC02D"/>
</radialGradient>
<radialGradient id="paint8_radial_17_35" cx="0" cy="0" r="1" gradientUnits="userSpaceOnUse" gradientTransform="translate(363.378 18.7646) rotate(-59.3035) scale(36.6136 21.9424)">
<stop stop-color="#FFEE58" stop-opacity="0"/>
<stop offset="1" stop-color="#FDD835"/>
</radialGradient>
<clipPath id="clip0_17_35">
<rect width="50" height="50" fill="white" transform="translate(295 8)"/>
</clipPath>
<clipPath id="clip1_17_35">
<rect width="50" height="50" fill="white" transform="translate(329.685 89.722) rotate(-162.498)"/>
</clipPath>
</defs>
</svg>
