<svg width="36" height="31" viewBox="0 0 36 31" fill="none" xmlns="http://www.w3.org/2000/svg">
<path d="M24.1031 17.8859C24.7734 17.8859 25.3375 18.2141 25.825 18.8797C26.3093 19.5391 26.5562 20.3547 26.5562 21.3172C26.5562 22.2844 26.3125 23.1 25.825 23.7594C25.3375 24.4188 24.7656 24.75 24.1031 24.75C23.3984 24.75 22.7922 24.4219 22.3047 23.7594C21.825 23.1 21.5781 22.2844 21.5781 21.3172C21.5781 20.35 21.8172 19.5375 22.3047 18.8797C22.7922 18.2125 23.4015 17.8859 24.1031 17.8859ZM32.7265 8.95626C34.6047 10.9922 35.5531 13.4625 35.5531 16.3594C35.5531 18.2391 35.3312 19.9313 34.9047 21.4359C34.4703 22.9328 33.9219 24.1594 33.2672 25.0969C32.6 26.0422 31.7937 26.8719 30.8218 27.5734C29.85 28.2938 28.9547 28.8078 28.1468 29.1391C27.339 29.4703 26.4094 29.7266 25.3578 29.9047C24.3187 30.0875 23.5328 30.1859 22.9875 30.2141C22.4625 30.2375 21.8906 30.2484 21.2734 30.2484C21.1359 30.2484 20.6719 30.2641 19.9 30.2859C19.1469 30.3172 18.5 30.3313 17.9969 30.3313C17.4937 30.3313 16.8469 30.3156 16.0937 30.2859C15.3281 30.2625 14.8594 30.2484 14.7203 30.2484C14.1031 30.2484 13.5265 30.2406 13.0047 30.2141C12.4578 30.1875 11.6734 30.0891 10.639 29.9047C9.58279 29.7297 8.65779 29.4781 7.84685 29.1391C7.03904 28.8109 6.14529 28.2938 5.1781 27.5734C4.2031 26.8641 3.39529 26.0375 2.7281 25.0969C2.07341 24.1594 1.52185 22.9328 1.0906 21.4359C0.665601 19.9313 0.443726 18.2391 0.443726 16.3594C0.443726 13.4625 1.38904 10.9922 3.27185 8.95626C3.06404 8.85469 3.0531 7.84063 3.23904 5.90626C3.40623 3.97032 3.81716 2.18751 4.48435 0.560944C6.83279 0.810944 9.72185 2.13594 13.1828 4.52813C14.3515 4.22344 15.9515 4.06719 17.9922 4.06719C20.1328 4.06719 21.7328 4.22344 22.8031 4.52813C24.3797 3.46407 25.889 2.59219 27.3281 1.92969C28.7906 1.27501 29.8422 0.887506 30.5047 0.787506L31.4953 0.560944C32.1656 2.18751 32.5765 3.97501 32.7453 5.90626C32.939 7.83907 32.9281 8.85469 32.7219 8.95626H32.7265ZM18.0812 28.5672C22.3047 28.5672 25.489 28.0609 27.6515 27.0469C29.8078 26.0297 30.9047 23.9375 30.9047 20.7844C30.9047 18.9563 30.2156 17.425 28.839 16.2031C28.1297 15.5406 27.3 15.1391 26.3468 14.9828C25.4172 14.8297 23.9812 14.8297 22.0422 14.9828C20.1109 15.1391 18.789 15.2094 18.0781 15.2094C17.1109 15.2094 16.0609 15.1578 14.7578 15.0563C13.4547 14.9594 12.4344 14.8969 11.7047 14.8656C10.9578 14.8422 10.164 14.9359 9.30154 15.1344C8.43123 15.3422 7.72654 15.6922 7.15623 16.1984C5.84373 17.3703 5.1781 18.8938 5.1781 20.7797C5.1781 23.9344 6.24685 26.025 8.38123 27.0391C10.514 28.0594 13.689 28.5625 17.914 28.5625L18.0812 28.5672ZM11.9734 17.8859C12.6359 17.8859 13.2062 18.2141 13.689 18.8797C14.1734 19.5391 14.4187 20.3547 14.4187 21.3172C14.4187 22.2844 14.1765 23.1 13.689 23.7594C13.2062 24.4188 12.6312 24.75 11.9734 24.75C11.2625 24.75 10.6594 24.4219 10.1719 23.7594C9.68904 23.1 9.44216 22.2844 9.44216 21.3172C9.44216 20.35 9.68435 19.5375 10.1719 18.8797C10.6594 18.2125 11.264 17.8859 11.9734 17.8859Z" fill="#444444"/>
</svg>
