<svg width="36" height="37" viewBox="0 0 36 37" fill="none" xmlns="http://www.w3.org/2000/svg">
<path d="M28.1363 36C27.6988 36 27.3425 35.645 27.3425 35.2075V23.1625C27.3425 18.8075 25.1075 18.8075 24.265 18.8075C21.9175 18.8075 20.7288 20.2725 20.7288 23.1625V35.2087C20.7288 35.6462 20.3738 36.0012 19.9363 36.0012H13.125C12.6875 36.0012 12.3325 35.6462 12.3325 35.2087V12.2625C12.3325 11.825 12.6875 11.47 13.125 11.47H19.9375C20.375 11.47 20.73 11.825 20.73 12.2625V13.1175L21.14 12.7787C22.7525 11.445 24.6763 10.7687 26.8575 10.7687C29.5538 10.7687 31.8238 11.63 33.4213 13.2612C35.1088 14.9837 36 17.5487 36 20.6775V35.2087C36 35.6462 35.6438 36.0012 35.2063 36.0012L28.1363 36ZM24.2663 17.22C26.0088 17.22 28.9313 17.9925 28.9313 23.1625V34.415H34.4125V20.6775C34.4125 15.3887 31.6588 12.3562 26.8575 12.3562C22.57 12.3562 20.7125 15.5937 20.635 15.7312C20.495 15.985 20.23 16.1425 19.9413 16.1425C19.8763 16.1425 19.81 16.1325 19.7425 16.1162C19.39 16.0275 19.1438 15.7137 19.1438 15.3537V13.0575H13.9188V34.4162H19.1438V23.1625C19.1438 19.4412 21.0588 17.22 24.2663 17.22Z" fill="#444444"/>
<path d="M1.47502 36C1.03752 36 0.681274 35.645 0.681274 35.2075V12.2625C0.681274 11.825 1.03752 11.47 1.47502 11.47H8.58127C9.01877 11.47 9.37377 11.825 9.37377 12.2625V35.2075C9.37377 35.645 9.01877 36 8.58127 36H1.47502ZM2.26877 34.415H7.78752V13.0563H2.26877V34.415Z" fill="#444444"/>
<path d="M4.99625 10.0487C2.24125 10.0487 0 7.795 0 5.025C0 2.25375 2.24125 0 4.99625 0C7.7475 0 9.9875 2.255 9.9875 5.02625C9.9875 7.795 7.7475 10.0487 4.99625 10.0487ZM4.99625 1.5825C3.11625 1.5825 1.5875 3.12625 1.5875 5.025C1.5875 6.9225 3.11625 8.46375 4.99625 8.46375C6.875 8.46375 8.4025 6.9225 8.4025 5.025C8.40125 3.1275 6.875 1.5825 4.99625 1.5825Z" fill="#444444"/>
</svg>
