<svg width="15" height="15" viewBox="0 0 15 15" fill="none" xmlns="http://www.w3.org/2000/svg">
<path d="M13.125 5.62501V1.87501M13.125 1.87501H9.375M13.125 1.87501L7.5 7.5M6.25 1.875H4.875C3.8249 1.875 3.29985 1.875 2.89877 2.07936C2.54596 2.25913 2.25913 2.54596 2.07936 2.89877C1.875 3.29985 1.875 3.8249 1.875 4.875V10.125C1.875 11.1751 1.875 11.7001 2.07936 12.1012C2.25913 12.4541 2.54596 12.7409 2.89877 12.9206C3.29985 13.125 3.8249 13.125 4.875 13.125H10.125C11.1751 13.125 11.7001 13.125 12.1012 12.9206C12.4541 12.7409 12.7409 12.4541 12.9206 12.1012C13.125 11.7001 13.125 11.1751 13.125 10.125V8.75" stroke="#444444" stroke-width="1.152" stroke-linecap="round" stroke-linejoin="round"/>
</svg>
